<?xml version="1.0" encoding="utf-8"?>
<!-- Generator: Adobe Illustrator 27.5.0, SVG Export Plug-In . SVG Version: 6.00 Build 0)  -->
<svg version="1.1" xmlns="http://www.w3.org/2000/svg" xmlns:xlink="http://www.w3.org/1999/xlink" x="0px" y="0px"
	 viewBox="0 0 1000 1000" style="enable-background:new 0 0 1000 1000;" xml:space="preserve">
<g id="color">
	<path id="XMLID_662_" style="fill:#D3D8AB;" d="M214.815,730.484c-36.401,21.469-46.077,26.076-65.86,26.076
		c-4.545,0-9.38-0.38-14.056-0.747c-4.671-0.367-9.501-0.746-14.009-0.746c-9.832,0-16.048,1.831-20.156,5.938
		c-7.953,7.954,5.594,29.823,15.085,39.315c8.136,8.138,22.25,9.097,22.391,9.106l6.606,0.407l0.022,6.62
		c0,25.643,12.253,37.586,38.559,37.586c4.507,0,8.657-0.356,11.688-0.616c1.095-0.094,2.068-0.177,2.934-0.235
		c1.523-2.151,5.88-9.891,12.798-34.773c4.991-17.949,8.182-33.76,8.257-36.388c0-4.902,0-8.161,76.185-61.399
		c32.745-22.882,66.678-45.868,77.375-53.093c0.292-12.697,1.588-32.223,6.236-50.521c-2.029-0.164-3.958-0.689-5.748-1.555
		C331.725,646.928,242.633,714.078,214.815,730.484z"/>
	<path id="XMLID_663_" style="fill:#E82428;" d="M572.139,685.235c0,0-14.31,24.384-19.883,36.995l-4.692-2.64
		c0,0-0.88,17.597-16.717,30.208l-4.106,3.519c0,0-9.971,19.357-25.809,18.77c0,0-8.212-1.466-9.972-10.558
		c0,0-4.106,10.852-21.703,9.385c-17.597-1.466-22.583-22.289-22.583-22.289l-7.332,6.745c0,0-10.265-34.021-10.265-35.194
		c0-1.173-4.986,8.212-4.986,8.212s-4.59-36.346-20.261-47.397c-0.145-0.079-0.287-0.158-0.431-0.237
		c3.365,8.07,6.352,18.462,3.626,25.856c-0.552,1.499-1.172,3.043-1.808,4.626c-3.535,8.807-7.169,17.863-2.327,26.698l7.932-4.923
		c0.931,3.023,4.208,14.542,3.384,24.218l9.03-0.68c0.339,0.964,8.297,23.732,8.297,34.178c0,2.545,1.031,5.454,2.488,8.281
		c-0.304-5.743,0.327-11.496,3.339-14.507c1.971-1.971,3.994-1.641,4.769-1.406c3.344,1.004,4.138,4.88,5.576,11.917
		c1.213,5.934,2.875,14.054,6.231,19.229c1.481-4.185,3.088-8.545,4.486-12.057l2.079-4.949c0,0,5.162,24.196,12.201,37.174
		c7.039,12.978,15.837,20.896,15.837,20.896l3.271-14.957c0,0,2.888,17.157,2.888,23.756c0,0,21.116-15.617,24.856-37.173
		c3.739-21.556,9.678-23.756,9.678-23.756l0.204,5.897c0.627,1.706,1.256,3.453,1.864,5.169c3.356-5.176,5.018-13.296,6.231-19.229
		c1.438-7.037,2.232-10.914,5.576-11.917c0.775-0.235,2.798-0.565,4.769,1.406c3.013,3.011,3.643,8.764,3.339,14.507
		c1.457-2.827,2.488-5.736,2.488-8.281c0-10.446,7.958-33.214,8.297-34.178l9.03,0.68c-0.825-9.677,2.452-21.195,3.384-24.218
		l7.932,4.923c4.843-8.835,1.208-17.891-2.327-26.698c-0.636-1.583-1.256-3.128-1.808-4.626c-2.861-7.761,0.57-18.829,4.128-27.042
		C579.182,681.285,575.205,683.509,572.139,685.235L572.139,685.235z"/>
	<path id="XMLID_664_" style="fill:#D3D8AB;" d="M364.552,501.541l5.274,5.274l-7.424,0.717c-0.045,0.005-5.927,0.718-5.927,3.977
		c0,1.297,2.425,3.973,4.196,5.927c4.162,4.593,9.862,10.883,5.829,18.582c-1.973,3.769-5.123,5.992-7.901,7.955
		c-5.004,3.535-7.517,5.308-2.533,14.722c2.357,4.453,4.894,7.774,7.363,10.388c4.971-4.031,13.144-10.756,23.687-19.785
		c-5.51-5.383-9.643-12.365-11.984-19.973c-7.039-22.876,0.88-48.099,21.703-53.964c0,0,44.494-6.349,68.527,1.925
		c8.265-8.275,16.413-16.696,24.218-25.132c-74.061,0.724-119.022,36.938-128.043,44.935
		C362.402,498.868,363.397,500.386,364.552,501.541z"/>
	<path id="XMLID_665_" style="fill:#D3D8AB;" d="M125.716,310.217c7.519,0,13.419-0.611,18.625-1.15
		c4.131-0.427,8.032-0.832,11.927-0.832c9.965,0,18.605,2.751,29.824,9.494c12.03,7.232,43.513,32.873,56.71,43.744
		c11.96-10.696,21.863-21.845,29.122-30.848c-14.78-9.957-34.368-23.583-51.094-36.081c-39.869-29.792-39.869-35.444-39.869-39.571
		v-25.056c0-4.732-2.605-9.045-6.799-11.255c-7.69-4.053-15.931-6.108-24.495-6.108c-4.823,0-9.76,0.674-14.675,2.004
		c-6.161,1.667-10.214,7.447-9.637,13.743c0.302,3.299,1.095,6.799,2.356,10.403c4.14,11.824,6.039,21.394,1.847,29.66
		c-3.369,6.644-10.142,11.322-21.314,14.722c-1.568,0.477-6.341,1.931-5.305,8.894C104.033,299.335,112.029,310.217,125.716,310.217
		z"/>
	<path id="XMLID_666_" style="fill:#D3D8AB;" d="M741.884,361.473c13.197-10.871,44.68-36.512,56.71-43.744
		c11.219-6.743,19.859-9.494,29.824-9.494c3.895,0,7.796,0.404,11.927,0.832c5.205,0.539,11.105,1.15,18.625,1.15
		c13.687,0,21.683-10.883,22.778-18.237c1.036-6.963-3.737-8.417-5.305-8.894c-11.172-3.4-17.945-8.078-21.314-14.722
		c-4.192-8.266-2.293-17.836,1.847-29.66c1.261-3.604,2.054-7.105,2.356-10.403c0.577-6.296-3.476-12.076-9.637-13.743
		c-4.915-1.33-9.852-2.004-14.675-2.004c-8.564,0-16.805,2.055-24.495,6.108c-4.193,2.21-6.799,6.523-6.799,11.255v25.056
		c0,4.127,0,9.778-39.869,39.571c-16.727,12.499-36.314,26.124-51.094,36.081C720.021,339.628,729.925,350.778,741.884,361.473z"/>
	<g id="XMLID_431_">
		<path id="XMLID_670_" style="fill:#E82428;" d="M626.029,441.099c-21.439-29.75-49.354-46.102-74.164-55.085
			c-2.779,5.272-7.772,13.948-15.918,25.739c1.954,0.444,3.907,0.909,5.85,1.428l3.84,1.067l3.797,1.197
			c2.538,0.759,5.017,1.674,7.486,2.547c4.944,1.74,9.641,3.902,14.156,6.02c2.245,1.088,4.421,2.229,6.535,3.365
			c2.1,1.164,4.096,2.414,6.064,3.568c3.879,2.419,7.453,4.846,10.581,7.314c3.234,2.314,5.884,4.853,8.334,6.929
			c2.326,2.239,4.326,4.203,5.913,5.873c3.079,3.448,4.756,5.456,4.756,5.456s-2.122-1.582-5.692-4.415
			c-1.845-1.333-4.086-2.951-6.656-4.808c-1.325-0.862-2.734-1.779-4.22-2.745c-1.46-0.995-3.038-1.973-4.712-2.951
			c-3.29-2.037-6.996-4-10.889-6.078c-1.991-0.964-4-2.014-6.109-2.974c-2.14-0.9-4.249-1.969-6.471-2.892
			c-2.239-0.887-4.473-1.877-6.803-2.718c-1.164-0.421-2.335-0.844-3.512-1.27c-1.163-0.458-2.347-0.882-3.55-1.27
			c-2.395-0.804-4.795-1.65-7.259-2.343l-3.681-1.098l-3.725-0.979c-2.762-0.784-5.549-1.473-8.336-2.114
			c-5.831,8.105-13.004,17.445-21.726,27.923c63.03,4.82,102.261,33.609,114.623,44.112
			C628.27,474.845,627.161,451.819,626.029,441.099z"/>
		<path id="XMLID_686_" style="fill:#E82428;" d="M491.904,375.128h-0.232c-0.863-0.033-84.771-2.521-134.128,65.971
			c-1.129,10.719-2.235,33.745,1.492,48.798c13.508-11.478,59.07-44.801,132.725-44.817v-0.001c0.009,0,0.017,0,0.026,0
			c0.009,0,0.017,0,0.026,0v0.001c1.407,0,2.785,0.035,4.171,0.059c8.954-9.945,17.333-19.86,24.758-29.532
			c-3.499-0.666-6.954-1.316-10.357-1.785c-4.785-0.714-9.432-1.312-13.853-1.819c-4.426-0.416-8.62-0.863-12.505-1.127
			c-7.769-0.566-14.283-0.809-18.857-0.916c-2.29-0.037-4.09-0.066-5.317-0.086c-1.23,0.008-1.886,0.012-1.886,0.012
			s0.643-0.135,1.849-0.389c1.21-0.234,2.986-0.604,5.266-0.926c2.278-0.338,5.052-0.72,8.249-1.01
			c3.196-0.299,6.813-0.598,10.767-0.708c3.955-0.172,8.246-0.196,12.786-0.073c4.535,0.172,9.334,0.345,14.267,0.908
			c4.599,0.459,9.339,1.064,14.121,1.886c6.771-9.237,12.572-18.206,17.064-26.713C514.328,374.446,492.332,375.12,491.904,375.128z
			 M466.428,420.7c3.833-0.581,7.53-0.481,10.898-0.655c3.378-0.085,6.457-0.308,9.205-0.077c2.741,0.114,5.127,0.288,7.086,0.415
			c3.919,0.265,6.142,0.5,6.142,0.5s-2.23,0.38-6.105,0.9c-1.938,0.255-4.284,0.583-6.971,0.875
			c-0.671,0.077-1.363,0.157-2.076,0.239c-0.709,0.125-1.438,0.255-2.187,0.387c-1.495,0.249-3.066,0.511-4.706,0.784
			c-1.636,0.268-3.339,0.547-5.103,0.836c-0.88,0.137-1.776,0.277-2.685,0.418c-0.902,0.19-1.817,0.383-2.745,0.579
			c-3.704,0.816-7.623,1.55-11.642,2.443c-3.987,1.024-8.107,2.082-12.293,3.157c-2.068,0.62-4.151,1.246-6.244,1.874
			c-2.09,0.631-4.218,1.169-6.268,1.95c-4.126,1.471-8.335,2.728-12.319,4.39c-2.005,0.798-4.008,1.555-5.993,2.295
			c-1.944,0.838-3.864,1.666-5.753,2.48c-3.802,1.589-7.359,3.37-10.804,4.948c-1.711,0.809-3.304,1.725-4.908,2.507
			c-1.596,0.795-3.148,1.555-4.581,2.379c-1.454,0.797-2.847,1.561-4.172,2.287c-1.311,0.756-2.554,1.474-3.723,2.147
			c-2.347,1.344-4.331,2.616-6.003,3.625c-1.621,1.071-2.948,1.862-3.799,2.468c-0.872,0.59-1.337,0.904-1.337,0.904
			s1.434-1.734,4.278-4.469c1.455-1.318,3.166-3.017,5.317-4.718c1.065-0.87,2.198-1.797,3.393-2.773
			c1.241-0.915,2.546-1.876,3.908-2.88c2.726-2.014,5.808-4.007,9.104-6.065c3.365-1.926,6.833-4.152,10.677-5.946
			c1.9-0.947,3.831-1.909,5.786-2.883c1.994-0.886,4.02-1.775,6.076-2.636c4.059-1.862,8.398-3.19,12.652-4.745
			c2.124-0.793,4.329-1.327,6.492-1.96c2.174-0.598,4.339-1.194,6.488-1.785c2.146-0.595,4.336-0.946,6.473-1.385
			c2.14-0.421,4.255-0.836,6.335-1.244C458.489,421.517,462.585,421.179,466.428,420.7z"/>
	</g>
	<path id="XMLID_700_" style="fill:#D3D8AB;" d="M863.795,755.067c-4.508,0-9.338,0.379-14.009,0.746
		c-4.676,0.367-9.51,0.747-14.056,0.747c-19.782,0-29.458-4.606-65.86-26.076c-27.817-16.406-116.909-83.557-158.308-115.026
		c-1.791,0.867-3.719,1.391-5.748,1.555c4.648,18.298,5.945,37.824,6.236,50.521c10.697,7.225,44.63,30.212,77.375,53.093
		c76.186,53.237,76.186,56.497,76.185,61.399c0.075,2.628,3.266,18.439,8.257,36.388c6.919,24.882,11.275,32.622,12.798,34.773
		c0.867,0.058,1.839,0.141,2.934,0.235c3.03,0.26,7.18,0.616,11.688,0.616c26.306,0,38.559-11.943,38.559-37.586l0.022-6.62
		l6.606-0.407c0.141-0.009,14.255-0.967,22.391-9.106c9.492-9.492,23.038-31.361,15.085-39.315
		C879.843,756.899,873.627,755.067,863.795,755.067z"/>
	<path id="XMLID_703_" style="fill:#101212;" d="M805.57,455.674c-21.646-9.402-103.976-48.85-147.923-121.84
		c-12.387-20.572-22.015-41.298-31.327-61.34C597.353,210.147,574.471,160.9,491.787,160.89
		c-82.686,0.011-105.567,49.257-134.534,111.604c-9.312,20.044-18.941,40.768-31.327,61.34
		c-43.948,72.989-126.278,112.438-147.923,121.84c56.753,47.427,155.724,43.585,176.249,42.213
		c-7.7-19.252-4.117-53.947-3.604-58.482l0.101-0.904l0.528-0.741c50.54-71.021,136.37-69.794,140.518-69.67
		c4.318-0.121,90.015-1.271,140.501,69.67l0.528,0.741l0.101,0.904c0.513,4.535,4.096,39.229-3.604,58.481
		C649.842,499.257,748.816,503.099,805.57,455.674z M527.32,222.038c0,0,12.804-8.065,12.804-10.118c0-2.053,0-5.573,0-5.573
		s4.253-4.106,10.558-1.173c0,0,1.026,1.613,0,4.546c-1.026,2.932-1.026,4.546,2.346,5.572c3.373,1.027,1.173,6.452-3.08,6.452
		s-5.293-1.173-8.952,1.026c-3.659,2.2-13.677,10.998-13.677,10.998V222.038z M430.545,215.293c3.373-1.026,3.373-2.639,2.346-5.572
		c-1.026-2.933,0-4.546,0-4.546c6.306-2.932,10.558,1.173,10.558,1.173s0,3.519,0,5.573c0,2.053,12.804,10.118,12.804,10.118v11.731
		c0,0-10.018-8.799-13.677-10.998c-3.66-2.2-4.699-1.026-8.952-1.026C429.372,221.745,427.172,216.32,430.545,215.293z
		 M473.217,278.349c0,0-23.756,15.544-23.756,16.717c0,1.173-2.64,12.318-4.106,12.318c-1.466,0-9.825,1.76-9.825-6.892
		c0,0-2.639-0.146-4.252-1.76c-1.613-1.613-4.376-5.776-2.38-7.772c1.996-1.996,5.606-1.026,8.392-1.026
		c2.786,0,4.106-0.586,9.825-3.959c5.719-3.373,24.783-18.33,24.783-18.33S474.39,273.069,473.217,278.349z M506.397,281.721
		l-2.64,0.44c0,0,1.173-4.986,0-4.986c-1.173,0-2.053,1.613-2.053,6.306l-2.933,0.587c0,0,1.026-5.133-0.733-5.133
		c0,0-2.2-1.173-2.2,7.772l-2.932,0.587v-8.359l-1.119-1.29l-1.119,1.29v8.359l-2.933-0.587c0-8.945-2.2-7.772-2.2-7.772
		c-1.76,0-0.733,5.133-0.733,5.133l-2.933-0.587c0-4.692-0.88-6.306-2.053-6.306c-1.173,0,0,4.986,0,4.986l-2.639-0.44l0.44-2.2
		c0-10.705-1.613-14.957-6.452-17.01c-4.839-2.053-6.159,4.839-6.159,4.839s-3.666-2.493-7.479-6.306
		c-3.813-3.812,2.053-7.332,3.079-10.411c1.026-3.079-2.493-7.186-3.519-10.558c-1.026-3.373,1.98-5.059,2.786-5.866
		c0.807-0.806,0-9.385,0-9.385c7.735-20.482,30.819-22.076,31.888-22.14v-0.003c0,0,0.019,0.001,0.026,0.002
		c0.007,0,0.026-0.002,0.026-0.002v0.003c1.069,0.063,24.153,1.657,31.888,22.14c0,0-0.807,8.579,0,9.385
		c0.806,0.807,3.812,2.493,2.786,5.866c-1.026,3.372-4.546,7.479-3.519,10.558c1.026,3.079,6.892,6.599,3.08,10.411
		c-3.813,3.813-7.479,6.306-7.479,6.306s-1.32-6.892-6.159-4.839c-4.839,2.053-6.452,6.305-6.452,17.01L506.397,281.721z
		 M552.296,298.732c-1.613,1.613-4.253,1.76-4.253,1.76c0,8.652-8.359,6.892-9.825,6.892c-1.466,0-4.106-11.145-4.106-12.318
		c0-1.173-23.756-16.717-23.756-16.717c-1.173-5.279,1.32-10.705,1.32-10.705s19.063,14.957,24.782,18.33
		c5.719,3.373,7.039,3.959,9.825,3.959c2.786,0,6.395-0.97,8.392,1.026C556.671,292.956,553.909,297.118,552.296,298.732z"/>
	<path id="XMLID_708_" style="fill:#FDC065;" d="M319.894,330.204c12.192-20.25,21.742-40.801,30.975-60.675
		c28.833-62.06,53.738-115.656,140.892-115.678v-0.001c0.009,0,0.017,0,0.026,0s0.017,0,0.026,0v0.001
		c87.153,0.022,112.057,53.619,140.891,115.676c9.233,19.876,18.783,40.427,30.975,60.677
		c45.427,75.449,133.228,114.29,147.696,120.293c2.648-2.521,5.193-5.159,7.6-7.946c-10.489-4.985-39.069-19.559-70.872-44.257
		c-36.902-28.657-85.909-77.232-109.826-145.919c-23.192-66.604-62.484-93.98-91.363-105.217c-23.611-9.187-44.168-9.41-52.88-8.961
		l-4.494,0.006c-8.768-0.443-29.53-0.206-53.208,9.083c-41.25,16.177-72.728,52.516-91.035,105.088
		c-23.917,68.686-72.924,117.262-109.826,145.919c-31.803,24.698-60.383,39.272-70.872,44.257c2.407,2.786,4.952,5.424,7.6,7.946
		C186.666,444.494,274.467,405.653,319.894,330.204z"/>
	<path id="XMLID_709_" style="fill:#D3D8AB;" d="M581.145,672.22c1.605-0.849,3.957-2.096,4.729-2.841
		c-0.048-8.218-1.246-39.937-6.387-54.174c-0.179-0.495-0.358-0.97-0.537-1.453c-1.459-0.205-4.248,0.279-5.518,6.416
		c-1.76,8.505-1.76,20.899-1.76,22.474c0,1.575-9.092,17.412-10.558,30.316c-1.467,12.904-9.092,26.102-9.092,26.102
		s5.279-15.837,5.279-27.569c0-11.731,8.652-35.424,8.652-35.424l-3.635-24.405c0,0,0.556,28.473-4.137,41.512
		c-4.693,13.039-13.26,35.622-15.576,41.781c-2.315,6.159-7.985,11.144-7.985,14.078c0,2.932-9.247,17.903-12.487,14.664l-0.54-2.64
		c0,0-3.666,6.672-6.892,6.672c-3.226,0-7.186-1.907-7.186-1.907s-2.2,2.493-4.619,3.373c-2.42,0.88-9.018,1.32-10.118-1.76
		c0,0-0.448-0.262-0.844-0.766c-0.409,0.554-0.901,0.839-0.901,0.839c-1.1,3.08-7.699,2.64-10.118,1.76
		c-2.419-0.88-4.619-3.372-4.619-3.372s-3.959,1.906-7.186,1.906c-3.226,0-6.892-6.672-6.892-6.672l-0.54,2.64
		c-3.239,3.24-12.487-11.731-12.487-14.664c0-2.933-5.67-7.919-7.985-14.078c-2.315-6.159-10.883-28.742-15.576-41.78
		c-4.693-13.039-4.137-41.512-4.137-41.512l-3.635,24.405c0,0,8.652,23.694,8.652,35.425c0,11.731,5.279,27.568,5.279,27.568
		s-7.625-13.198-9.092-26.102c-1.466-12.904-10.558-28.742-10.558-30.317c0-1.575,0-13.969-1.76-22.474
		c-1.359-6.567-4.459-6.663-5.804-6.366c-0.164,0.443-0.328,0.878-0.491,1.331c-5.111,14.153-6.324,45.57-6.386,54.015
		c0.052,0.091,0.116,0.202,0.177,0.309c0.9,0.753,3.046,1.895,4.551,2.691c4.491,2.38,10.252,5.45,12.631,10.614l0.013,0.003
		c0,0,5.422,1.853,10.447,28.542c0,0,3.151-9.723,4.006-12.228c0,0,7.281,30.704,12.655,42.142l5.361-8.505
		c0,0,4.12,10.265,7.639,17.01c0,0,10.08,17.89,20.29,14.078c10.211-3.812,13.997-23.756,13.997-23.756l3.535,9.092v-4.693
		c0,0,5.583,19.89,10.862,19.89c5.279,0,20.598-9.258,18.944-27.515c0,0,1.254,3.409,3.711,5.865
		c2.457,2.457,16.987-16.424,14.609-35.12l7.144,4.913c0,0,11.54-25.266,22.206-32.799l0.003,0.008
		C573.326,676.375,577.625,674.085,581.145,672.22z"/>
	<path id="XMLID_714_" style="fill:#D3D8AB;" d="M414.448,576.818c-0.451,0.145-0.9,0.284-1.353,0.458
		c0.912-1.114,2.036-2.083,3.322-2.853c1.281-0.782,2.749-1.37,4.376-1.6c0.407-0.054,0.821-0.118,1.239-0.147l1.273,0.099
		c0.879,0.01,1.686,0.335,2.526,0.616c1.624,0.628,3.103,1.675,4.237,2.881c0.302,0.295,0.605,0.6,0.89,0.91l0.696,0.985
		c0.448,0.663,0.962,1.327,1.338,2.02c0.629,1.389,1.458,2.798,1.879,4.232c0.441,1.425,0.994,2.874,1.275,4.315
		c0.304,1.438,0.577,2.885,0.834,4.334c0.229,1.505,0.358,2.796,0.515,4.207c0.18,1.355,0.244,2.842,0.332,4.273
		c0.119,1.44,0.106,2.884,0.109,4.324c0.046,1.431-0.107,2.902-0.174,4.35c-0.161,1.466-0.284,2.919-0.609,4.397
		c-0.283,1.466-0.663,2.945-1.243,4.393c-0.538,1.439-1.334,2.885-2.3,4.066c-0.994,1.26-1.803,1.911-2.106,3.029l-0.014,0.15
		c-0.103,0.26-0.229,0.516-0.336,0.777l-1.275,5.497c1.141-1.11,2.56-2.493,2.971-2.904c0.715-0.715,2.53-5.939,2.53-5.939
		s0.275,4.124,2.859,6.709c2.585,2.585,3.629,4.289,3.629,4.289s2.75-0.11,2.75-0.99c0-0.88,1.43-10.008,1.43-10.008
		s1.54,7.149,2.639,8.249c1.1,1.1,3.629,2.09,5.719,2.09s5.609-1.43,5.609-1.43s0.55-12.648,0.55-13.967
		c0-1.32,1.98,6.269,1.98,9.458c0,3.189,6.929,9.458,9.238,9.458c2.31,0,4.289,0.11,4.289-2.419c0-2.53,3.794-2.914,4.619-3.739
		c0.825-0.825,4.179-5.609,4.179-6.599s2.639,6.599,2.639,6.599s3.161,2.357,4.055,4.203c0.03,0.062,0.06,0.17,0.09,0.258
		c0.03-0.088,0.061-0.196,0.09-0.258c0.894-1.846,4.055-4.203,4.055-4.203s2.64-7.589,2.64-6.599s3.354,5.774,4.179,6.599
		c0.825,0.825,4.619,1.21,4.619,3.739c0,2.53,1.98,2.419,4.289,2.419s9.238-6.269,9.238-9.458c0-3.189,1.98-10.778,1.98-9.458
		c0,1.32,0.55,13.967,0.55,13.967s3.519,1.43,5.609,1.43c2.09,0,4.619-0.99,5.719-2.09c1.1-1.1,2.64-8.249,2.64-8.249
		s1.43,9.128,1.43,10.008c0,0.88,2.75,0.99,2.75,0.99s1.045-1.705,3.629-4.289c2.584-2.584,2.859-6.709,2.859-6.709
		s1.815,5.224,2.529,5.939c0.5,0.499,2.483,2.43,3.644,3.559l-1.129-4.869c-0.302-0.685-0.619-1.368-0.891-2.059l-0.014-0.15
		c-0.302-1.118-1.111-1.769-2.106-3.029c-0.966-1.181-1.762-2.627-2.3-4.066c-0.58-1.449-0.961-2.927-1.243-4.393
		c-0.325-1.478-0.448-2.931-0.609-4.397c-0.067-1.447-0.22-2.919-0.174-4.35c0.003-1.44-0.009-2.884,0.109-4.324
		c0.088-1.431,0.153-2.918,0.333-4.273c0.156-1.411,0.285-2.703,0.514-4.207c0.258-1.449,0.531-2.896,0.835-4.334
		c0.281-1.442,0.834-2.89,1.275-4.315c0.421-1.434,1.25-2.843,1.879-4.232c0.376-0.693,0.889-1.357,1.338-2.02l0.696-0.985
		c0.284-0.31,0.587-0.615,0.89-0.91c1.135-1.206,2.613-2.254,4.237-2.881c0.84-0.28,1.646-0.606,2.526-0.616l1.273-0.099
		c0.418,0.029,0.832,0.093,1.239,0.147c1.628,0.229,3.095,0.818,4.376,1.6c1.287,0.77,2.411,1.739,3.322,2.853
		c-0.162-0.062-0.323-0.105-0.485-0.165c1.513,0.902,3.507,2.225,4.78,3.591c2.254-1.642,6.242-2.897,12.236,0.882
		c3.605,2.273,7.135,5.803,9.713,8.381c1.619,1.619,3.861,0.933,4.753,0.565c2.177-0.902,3.756-2.868,3.756-4.676
		c0-4.645,3.351-7.181,7.231-10.12c4.241-3.21,10.049-7.606,15.045-17.042c4.982-9.414,2.471-11.187-2.535-14.722
		c-2.779-1.962-5.929-4.186-7.901-7.955c-4.033-7.699,1.669-13.988,5.831-18.582c1.772-1.954,4.196-4.631,4.196-5.927
		c0-3.258-5.884-3.971-5.944-3.977l-7.331-0.777l5.197-5.214c1.154-1.154,2.149-2.671,3.015-4.45
		c-8.618-7.617-49.947-40.866-117.775-44.613c-8.205,9.577-17.613,19.998-28.447,31.257c5.367,7.076,2.908,18.893-3.752,31.098
		c1.605,4.911,2.356,8.907,2.418,9.244l1.525,8.391l-6.998-4.873c-0.894-0.622-2.143-1.496-3.494-2.451
		c-8.629,11.917-20.359,23.016-31.725,29.108c-13.812,7.404-26.371,7.121-36.452,2.266c-7.885,6.623-16.153,13.397-24.799,20.308
		c3.239,2.516,5.804,4.965,5.804,9.029c0,1.808,1.579,3.774,3.757,4.676c0.892,0.368,3.134,1.053,4.753-0.565
		c2.578-2.578,6.107-6.107,9.713-8.381c6.154-3.875,10.202-2.453,12.419-0.75C410.436,579.247,412.89,577.709,414.448,576.818z
		 M509.093,520.117c0.128-0.703,3.219-17.303,10.947-25.029c8.194-8.195,50.049-21.56,60.558-21.56
		c13.324,0,28.155,24.823,28.155,41.645c0,16.752-17.898,33.601-29.579,35.725c-1.41,0.256-3.006,0.376-4.734,0.376
		c-11.5,0-28.87-5.284-36.606-10.62c-6.283-4.334-10.919-14.621-13.987-21.427c-0.24-0.534-0.499-1.108-0.753-1.662
		c-2.798,2.062-6.531,4.679-8.528,6.07l-6.999,4.873L509.093,520.117z M462.405,578.823c1.407-3.157,3.334-7.48,5.198-14.938
		c10.785-43.138,15.71-43.138,18.078-43.138c2.525,0,4.57,1.335,6.105,2.892c1.535-1.557,3.58-2.892,6.105-2.892
		c2.368,0,7.295,0,18.08,43.138c1.865,7.458,3.791,11.782,5.197,14.938c1.251,2.808,2.239,5.026,2.239,7.618
		c0,5.384-9.945,12.543-16.19,14.188c-1.263,0.332-2.389,0.473-3.387,0.473c-4.241,0-6.221-2.547-6.949-3.836
		c-2.593-4.588-2.976-8.407-3.229-10.933c-0.057-0.576-0.132-1.334-0.218-1.708c-0.495-0.452-1.094-0.864-1.647-1.206
		c-0.553,0.342-1.152,0.753-1.647,1.206c-0.086,0.375-0.162,1.133-0.218,1.708c-0.253,2.526-0.636,6.344-3.229,10.933
		c-0.729,1.287-2.707,3.836-6.949,3.836c-0.999,0-2.122-0.141-3.385-0.473c-6.245-1.643-16.191-8.802-16.191-14.188
		C460.166,583.849,461.154,581.631,462.405,578.823z"/>
	<g id="XMLID_405_">
		<path id="XMLID_406_" style="fill:#E82428;" d="M515.105,240.295c-0.88-2.749-7.424-9.403-20.676,3.849
			c0,0,4.839,7.589,13.638,7.589C516.865,251.733,515.985,243.045,515.105,240.295z"/>
		<path id="XMLID_420_" style="fill:#E82428;" d="M491.787,248.016c-0.13,0.111-1.565,1.379-4.639,5.99
			c-3.226,4.839-1.027,8.212,0,9.238c0.985,0.985,4.339-1.648,4.613-1.866v-0.04c0,0,0.023,0.018,0.026,0.02
			c0.003-0.002,0.026-0.02,0.026-0.02v0.04c0.274,0.218,3.628,2.851,4.613,1.866c1.026-1.026,3.226-4.399,0-9.238
			C493.352,249.395,491.917,248.128,491.787,248.016z"/>
		<path id="XMLID_421_" style="fill:#E82428;" d="M489.145,244.145c-13.253-13.253-19.796-6.599-20.676-3.849
			c-0.88,2.749-1.76,11.438,7.039,11.438C484.306,251.733,489.145,244.145,489.145,244.145z"/>
		<path id="XMLID_422_" style="fill:#FFFFFF;" d="M433.624,221.745c4.253,0,5.292-1.173,8.952,1.026
			c3.659,2.2,13.677,10.998,13.677,10.998v-11.731c0,0-12.804-8.065-12.804-10.118c0-2.053,0-5.573,0-5.573
			s-4.252-4.106-10.558-1.173c0,0-1.026,1.613,0,4.546c1.027,2.932,1.027,4.546-2.346,5.572
			C427.172,216.32,429.372,221.745,433.624,221.745z"/>
		<path id="XMLID_423_" style="fill:#FFFFFF;" d="M447.115,285.974c-5.719,3.373-7.038,3.959-9.825,3.959
			c-2.786,0-6.395-0.97-8.392,1.026c-1.996,1.996,0.766,6.159,2.38,7.772c1.613,1.613,4.252,1.76,4.252,1.76
			c0,8.652,8.359,6.892,9.825,6.892c1.467,0,4.106-11.145,4.106-12.318c0-1.173,23.756-16.717,23.756-16.717
			c1.173-5.279-1.32-10.705-1.32-10.705S452.834,282.601,447.115,285.974z"/>
		<path id="XMLID_426_" style="fill:#FFFFFF;" d="M512.409,262.511c4.839-2.053,6.159,4.839,6.159,4.839s3.666-2.493,7.479-6.306
			c3.813-3.812-2.053-7.332-3.08-10.411c-1.026-3.079,2.493-7.186,3.519-10.558c1.026-3.373-1.98-5.059-2.786-5.866
			c-0.807-0.806,0-9.385,0-9.385c-7.735-20.482-30.819-22.076-31.888-22.14v-0.003c0,0-0.019,0.001-0.026,0.002
			c-0.006,0-0.026-0.002-0.026-0.002v0.003c-1.07,0.063-24.154,1.657-31.888,22.14c0,0,0.807,8.579,0,9.385
			c-0.806,0.807-3.812,2.493-2.786,5.866c1.026,3.372,4.546,7.479,3.519,10.558c-1.026,3.079-6.892,6.599-3.079,10.411
			c3.813,3.813,7.479,6.306,7.479,6.306s1.32-6.892,6.159-4.839c4.839,2.053,6.452,6.305,6.452,17.01l-0.44,2.2l2.639,0.44
			c0,0-1.173-4.986,0-4.986c1.173,0,2.053,1.613,2.053,6.306l2.933,0.587c0,0-1.026-5.133,0.733-5.133c0,0,2.2-1.173,2.2,7.772
			l2.933,0.587v-8.359l1.119-1.29l1.119,1.29v8.359l2.932-0.587c0-8.945,2.2-7.772,2.2-7.772c1.76,0,0.733,5.133,0.733,5.133
			l2.933-0.587c0-4.692,0.88-6.306,2.053-6.306c1.173,0,0,4.986,0,4.986l2.64-0.44l-0.44-2.2
			C505.957,268.817,507.57,264.564,512.409,262.511z M475.507,251.733c-8.798,0-7.919-8.689-7.039-11.438
			c0.88-2.749,7.424-9.403,20.676,3.849C489.145,244.145,484.306,251.733,475.507,251.733z M496.425,263.244
			c-0.985,0.985-4.339-1.648-4.613-1.866v-0.04c0,0-0.023,0.018-0.026,0.02c-0.003-0.002-0.026-0.02-0.026-0.02v0.04
			c-0.274,0.218-3.628,2.851-4.613,1.866c-1.027-1.026-3.226-4.399,0-9.238c3.074-4.611,4.509-5.878,4.639-5.99
			c0.13,0.111,1.565,1.379,4.639,5.99C499.651,258.845,497.452,262.218,496.425,263.244z M494.429,244.145
			c13.253-13.253,19.797-6.599,20.676-3.849c0.88,2.749,1.76,11.438-7.039,11.438C499.268,251.733,494.429,244.145,494.429,244.145z
			"/>
		<path id="XMLID_429_" style="fill:#FFFFFF;" d="M549.949,221.745c4.253,0,6.452-5.426,3.08-6.452
			c-3.373-1.026-3.373-2.639-2.346-5.572c1.026-2.933,0-4.546,0-4.546c-6.305-2.932-10.558,1.173-10.558,1.173s0,3.519,0,5.573
			c0,2.053-12.804,10.118-12.804,10.118v11.731c0,0,10.018-8.799,13.677-10.998C544.657,220.572,545.697,221.745,549.949,221.745z"
			/>
		<path id="XMLID_430_" style="fill:#FFFFFF;" d="M554.675,290.959c-1.996-1.996-5.605-1.026-8.392-1.026
			c-2.786,0-4.106-0.586-9.825-3.959c-5.719-3.373-24.782-18.33-24.782-18.33s-2.493,5.426-1.32,10.705
			c0,0,23.756,15.544,23.756,16.717c0,1.173,2.64,12.318,4.106,12.318c1.466,0,9.825,1.76,9.825-6.892c0,0,2.64-0.146,4.253-1.76
			C553.909,297.118,556.671,292.956,554.675,290.959z"/>
	</g>
	<path id="XMLID_649_" style="fill:#FFFFFF;" d="M454.515,654.483c1.155-1.155,4.289-2.64,4.289-4.949c0-2.31-0.88-4.289,0-10.008
		c0,0-2.639-3.936-5.499-3.936s-5.118,7.579-4.729,12.954C448.964,653.919,453.36,655.637,454.515,654.483z"/>
	<path id="XMLID_650_" style="fill:#FFFFFF;" d="M446.651,649.203c0,0,0.055-4.894,1.045-7.589c0,0-1.32-4.344-3.464-5.444
		c-2.145-1.1-2.365,6.929-1.76,10.173C443.077,649.588,446.651,649.203,446.651,649.203z"/>
	<path id="XMLID_651_" style="fill:#FFFFFF;" d="M484.54,655.362c7.919,0.55,5.279-2.859,5.279-12.098
		c0-9.238-5.939-9.788-5.939-9.788c-5.389,0-6.698,3.299-6.698,10.008S476.621,654.813,484.54,655.362z"/>
	<path id="XMLID_652_" style="fill:#FFFFFF;" d="M473.432,652.503c0,0-0.22-11.108-0.77-11.658c-0.55-0.55-8.886-1.86-10.668-7.369
		c0,0-1.76,10.558-0.55,15.397C462.654,653.713,473.432,653.713,473.432,652.503z"/>
	<path id="XMLID_654_" style="fill:#FFFFFF;" d="M547.33,669.146c-1.576,1.576-2.566,3.581-3.006,1.607
		c-0.44-1.974-0.586-3.073-1.246-3.733c-0.66-0.66-3.666-1.173-3.666,1.98c0,3.153,0.382,3.446,0.382,3.446
		s-2.215-0.293-2.215,1.026c0,1.32,3.152,1.907,1.393,2.273c-1.76,0.366-2.053-0.953-3.812,0.806
		c-1.76,1.76-5.206,4.253-4.473,7.552c0.733,3.299,3.556,3.116,2.346,4.326c-1.21,1.21-3.812-1.246-5.572,1.833l-0.59,1.073
		c-0.27,1.813-0.728,5.747,0.223,6.699c1.247,1.246,5.243,1.796,7.259-0.22c2.017-2.017,1.21-6.416,0.513-7.112
		s-1.1-1.393-0.44-1.393s1.76,2.859,4.326-0.367c2.566-3.226,5.719-6.599,4.619-8.505c-1.1-1.907-3.08-2.786-3.08-2.786
		s0.587-2.273,3.373-2.273c2.786,0,4.473-0.293,4.473-1.833C548.137,672.006,548.907,667.57,547.33,669.146z"/>
	<path id="XMLID_655_" style="fill:#FFFFFF;" d="M440.547,645.207c0,0-0.55-2.822,0-8.046c0,0-2.419-4.124-5.389-5.279
		c-2.969-1.155-5.554,4.344-5.554,5.279c0,0.019-0.003,0.05-0.003,0.072c0.331,1.233,0.744,2.957,0.87,4.345
		c0.094,1.035,1.895,2.378,3.923,3.577c0.046,0.016,0.082,0.036,0.128,0.052C434.523,645.207,438.849,646.002,440.547,645.207z"/>
	<path id="XMLID_657_" style="fill:#FFFFFF;" d="M527.314,707.64c-2.42,0-6.599,3.006-6.599,3.006l-0.427,0.665
		c3.08,2.132,3.136,9.741,3.434,10.04c0.366,0.366,7.039-8.286,7.039-9.825C530.76,709.986,529.733,707.64,527.314,707.64z"/>
	<path id="XMLID_658_" style="fill:#FFFFFF;" d="M518.295,712.552c-1.644,0-4.245,1.079-6.446,1.857
		c-1.782,0.677-3.919,1.572-4.163,2.059l-0.003,0.004c0.31,1.081,0.464,2.579,0.567,4.658c0,0,0.074,1.906,0.733,2.566
		c0.66,0.66,6.819,2.2,7.919,0.44s4.252-4.326,4.252-5.499C521.155,717.465,520.862,712.552,518.295,712.552z"/>
	<path id="XMLID_661_" style="fill:#FFFFFF;" d="M498.769,655.362c7.919-0.55,7.358-5.169,7.358-11.878s-1.309-10.008-6.698-10.008
		c0,0-5.939,0.55-5.939,9.788C493.49,652.503,490.851,655.912,498.769,655.362z"/>
	<path id="XMLID_667_" style="fill:#FFFFFF;" d="M540.837,646.344c0.605-3.244,0.385-11.273-1.76-10.173
		c-2.145,1.1-3.464,5.444-3.464,5.444c0.99,2.695,1.045,7.589,1.045,7.589S540.232,649.588,540.837,646.344z"/>
	<path id="XMLID_687_" style="fill:#FFFFFF;" d="M553.705,637.161c0-0.935-2.585-6.434-5.554-5.279
		c-2.969,1.155-5.389,5.279-5.389,5.279c0.55,5.224,0,8.046,0,8.046c1.699,0.795,6.025,0,6.025,0
		c0.593-0.204,1.099-0.443,1.562-0.698c0.511-0.328,0.992-0.66,1.409-0.991c0.844-0.766,1.35-1.619,1.641-2.455
		c0.086-0.687,0.222-1.419,0.38-2.134C553.803,638.098,553.705,637.442,553.705,637.161z"/>
	<path id="XMLID_688_" style="fill:#FFFFFF;" d="M528.794,654.483c1.155,1.155,5.551-0.564,5.939-5.939
		c0.388-5.375-1.87-12.954-4.729-12.954s-5.499,3.936-5.499,3.936c0.88,5.719,0,7.699,0,10.008
		C524.505,651.843,527.639,653.328,528.794,654.483z"/>
	<path id="XMLID_691_" style="fill:#FFFFFF;" d="M436.484,669.22c-1.577-1.576-0.807,2.859-0.807,4.399
		c0,1.54,1.687,1.833,4.473,1.833s3.373,2.273,3.373,2.273s-1.98,0.88-3.079,2.786c-1.1,1.906,2.053,5.279,4.619,8.505
		c2.566,3.226,3.666,0.367,4.326,0.367s0.257,0.696-0.44,1.393c-0.696,0.697-1.503,5.096,0.513,7.112
		c2.016,2.016,6.012,1.466,7.259,0.22c0.951-0.952,0.494-4.886,0.223-6.699l-0.59-1.073c-1.76-3.079-4.362-0.623-5.572-1.833
		c-1.21-1.21,1.613-1.027,2.346-4.326c0.733-3.299-2.713-5.792-4.473-7.552c-1.76-1.76-2.053-0.44-3.812-0.807
		c-1.76-0.367,1.393-0.953,1.393-2.273c0-1.32-2.215-1.027-2.215-1.027s0.382-0.293,0.382-3.446c0-3.153-3.006-2.64-3.666-1.98
		c-0.66,0.66-0.806,1.76-1.246,3.733C439.05,672.801,438.06,670.796,436.484,669.22z"/>
	<path id="XMLID_710_" style="fill:#FFFFFF;" d="M479.009,723.77c3.043,3.043,9.458-0.147,10.045-1.98
		c0.586-1.833,1.466-3.666,0.88-4.839c-0.191-0.381-1.276-0.809-2.577-1.213c-0.09-0.014-5.247-0.836-7.516-0.593
		c-2,0.401-2.812,1.783-2.812,4.298C477.03,722.964,475.967,720.727,479.009,723.77z"/>
	<path id="XMLID_711_" style="fill:#FFFFFF;" d="M453.054,711.599c0,1.54,6.672,10.191,7.039,9.825
		c0.298-0.298,0.354-7.907,3.434-10.04l-0.427-0.665c0,0-4.179-3.006-6.599-3.006C454.081,707.713,453.054,710.059,453.054,711.599z
		"/>
	<path id="XMLID_716_" style="fill:#FFFFFF;" d="M466.911,724.21c1.1,1.76,7.259,0.22,7.919-0.44c0.66-0.66,0.733-2.566,0.733-2.566
		c0.104-2.078,0.257-3.577,0.567-4.658l-0.003-0.004c-0.244-0.487-2.381-1.382-4.163-2.059c-2.201-0.779-4.802-1.858-6.446-1.858
		c-2.566,0-2.859,4.913-2.859,6.085C462.659,719.884,465.812,722.45,466.911,724.21z"/>
</g>
<g id="efect">
	<path id="XMLID_504_" style="fill:#E82428;" d="M524.694,706.209c0,0,5.939-2.75,7.589,3.189c0,0,3.079-7.149,2.2-8.578
		c-0.88-1.43-4.839,0.55-7.699-0.99C526.783,699.83,523.704,703.46,524.694,706.209z"/>
	<path id="XMLID_501_" style="fill:#D3D8AB;" d="M320.936,684.763c0,0,16.277-10.558,11.438-0.88
		c-4.839,9.678-73.907,47.072-73.907,47.072l54.99-41.793c-29.915,7.479-64.669,35.634-78.746,49.711
		c-14.078,14.078-30.355,50.591-45.752,38.713c-15.397-11.878-28.155-10.998-29.035-9.678c-0.88,1.32,1.32,15.837-20.676,22.876
		c-21.996,7.039-46.632-23.316-46.632-23.316s10.998,19.357,15.397,31.674c4.399,12.318,35.194,14.517,35.194,14.517v15.397
		l16.277,26.835l38.273,0.44l15.397-25.955l10.558-51.471l150.454-109.981l2.2-26.395L320.936,684.763z M182.58,826.418
		c-7.653,0-17.377-6.057-17.377-13.528c0-7.471,7.304-9.788,14.957-9.788c7.653,0,12.758,2.317,12.758,9.788
		C192.919,820.361,190.234,826.418,182.58,826.418z"/>
	<g id="XMLID_495_">
		<path id="XMLID_499_" style="fill:#D3D8AB;" d="M238.231,338.544c-7.603,0.585,2.64,5.866,4.693,6.746
			C244.976,346.169,249.669,337.664,238.231,338.544z"/>
		<path id="XMLID_496_" style="fill:#D3D8AB;" d="M222.687,338.25c-5.279-7.332,13.491,2.639,7.625-5.866
			c-5.865-8.505-43.992-30.208-43.699-25.516c0.293,4.692,31.674,17.597,28.742,23.462c-2.933,5.866-43.406-28.741-41.646-27.275
			c1.76,1.466,12.318,3.226,5.279-5.279s-11.438-6.745-11.438-22.583c0-15.837,20.823-12.905,18.183-17.304
			c-2.639-4.399-5.279-5.572-14.957-3.812c-9.678,1.76-23.756-2.347-34.9-14.077c-11.145-11.731-6.452-24.929-6.452-24.929
			l-6.452,4.693l5.279,30.795l-1.76,18.183l-23.169,10.852l-5.572,17.597l17.597,16.717l36.367-3.519l31.088,6.745l60.709,49.858
			l11.145-11.145C254.655,355.847,227.966,345.582,222.687,338.25z M122.385,286.926c-8.505-4.399,3.519-9.678,3.519-9.678
			C144.381,278.714,130.89,291.325,122.385,286.926z"/>
	</g>
	<path id="XMLID_491_" style="fill:#D3D8AB;" d="M880.811,281.06l-21.41-10.558l-3.813-22.583l6.746-18.477l-5.866-18.184
		l-29.622-1.76l-3.226,3.226c0,0,24.342,0.586,23.169,19.063c-1.173,18.477-6.159,29.915-20.823,26.102
		c-14.664-3.812-19.65,0-15.544,5.573c4.106,5.572,25.809,5.865,26.102,15.837c0.293,9.972-0.293,0.293-23.462,8.505
		c-23.169,8.212-37.54,21.116-41.939,28.155c-4.399,7.039,15.251-9.091,14.957-5.865c-0.293,3.226-33.727,36.367-33.727,30.208
		s21.996-22.876,15.25-19.944c-6.745,2.933-38.42,30.502-38.42,30.502s11.145,10.558,11.731,11.731
		c0.586,1.173,52.791-39.3,52.791-39.3l34.9-11.438l39.3,2.053l11.731-9.972l7.625-10.265L880.811,281.06z M840.925,292.792
		c0,0,9.385-9.092,15.837-7.332C863.214,287.219,857.349,297.484,840.925,292.792z"/>
	<path id="XMLID_490_" style="fill:#D3D8AB;" d="M611.285,615.109c0,0,9.971,25.222,14.078,41.646
		c4.106,16.424,81.532,52.791,73.907,55.137c-7.625,2.346-11.145,2.346,14.664,12.904c25.809,10.558-12.318-9.385-4.106-10.558
		c8.212-1.173,57.483,31.088,59.829,36.954c2.346,5.866-14.664,0-9.385,5.866c5.279,5.866,20.53,14.664,28.155,26.982
		c7.625,12.318-12.318,28.155,7.625,36.367c19.943,8.212-2.933-23.463-1.173-28.742c1.76-5.279,23.462,12.318,28.155,24.049
		c4.693,11.731,11.731-17.597-1.173-25.222c-12.904-7.625-5.866-22.289,3.519-13.491c9.385,8.798,59.243-6.452,59.829-18.77
		c0.587-12.318,8.798,29.915-8.798,42.233c-17.597,12.318-31.674,13.491-31.674,13.491s-3.519,40.473-30.501,44.579
		c-26.982,4.106-38.127-4.693-38.127-18.184c0-13.491-15.837-64.522-15.837-64.522L609.526,670.832l-7.625-57.483L611.285,615.109z"
		/>
	<path id="XMLID_489_" style="fill:#D3D8AB;" d="M368.448,506.008c0,0,34.607-31.968,66.282-37.247
		c31.674-5.279,56.897-7.332,56.897-7.332l-19.65,18.77l-0.587,21.116l-55.137,50.738l-22.876,1.173l-26.395,24.342l10.558,12.318
		l28.742-23.463c0,0,36.367,1.173,58.656-32.554s26.395-37.247,19.65-50.738l24.929-24.342c0,0,65.695,12.611,83.292,24.049
		c17.597,11.438,19.65,20.236,19.65,20.236s5.279,8.505,7.919,3.519c2.639-4.986,2.639-9.092,2.639-9.092l-1.173-7.332
		c0,0-44.579-32.848-102.355-39.593c-57.776-6.745-127.871,22.583-127.871,22.583l-34.021,19.65
		C357.596,492.81,359.943,508.061,368.448,506.008z"/>
	<path id="XMLID_487_" style="fill:#D3D8AB;" d="M513.329,519.205c0,0,14.957,39.593,30.795,46.925
		c15.837,7.332-4.986-5.572-2.346-10.558c2.64-4.986,16.131,9.092,35.487,5.279c19.357-3.813,28.448,7.625,31.674-19.943
		c3.226-27.568-3.519-32.554-4.986-35.194C602.487,503.075,512.449,518.326,513.329,519.205z"/>
	<path id="XMLID_486_" style="fill:#D3D8AB;" d="M465.817,574.636c0,0-13.491,12.024-4.986,23.169
		c8.505,11.145,17.89,12.025,21.409,9.092c3.519-2.933,3.226-7.332,3.519-14.664c0.293-7.332,10.558-19.65,11.731-13.491
		c1.173,6.159-9.678,17.304,0,24.342c9.678,7.039,20.236,4.106,27.275-4.106c7.039-8.212-1.76-19.357-4.986-25.516
		c-3.226-6.159-18.77-6.452-19.943-6.159C498.665,567.597,465.817,574.636,465.817,574.636z"/>
	<path id="XMLID_485_" style="fill:#D3D8AB;" d="M551.749,611.003c0,0-6.745-19.357-6.745-26.982c0-7.625-2.053,14.957-1.466,30.208
		c0.587,15.251-3.226,13.784-4.693,11.438c-1.466-2.346-1.76-23.756-1.76-26.395c0-2.64-2.053,26.102-4.399,28.742
		c-2.346,2.64-9.385-4.693-8.505-23.169c0,0-1.173,15.251-2.346,21.41c-1.173,6.159-4.106,8.212-5.866,9.385
		c-1.76,1.173-8.212,2.346-8.798-1.466c-0.587-3.813-1.466-10.558-2.053-12.904c-0.586-2.346,0.293,11.145-4.399,11.438
		c-4.693,0.293,6.012-0.66,7.332,6.965l5.866-2.126l7.772-6.892l1.906,4.253c0,0,8.945,0.073,9.238,0.073
		c0.293,0,3.886-3.226,3.886-3.226s1.1,3.006,1.1,3.373s4.033,0.733,4.033,0.733l6.599-7.552l5.719,6.526l2.053-4.253
		L551.749,611.003z"/>
	<path id="XMLID_484_" style="fill:#D3D8AB;" d="M578.511,610.636c0,0-2.42,17.157-0.88,31.235
		c1.54,14.078-1.98,17.817-6.819,24.856c-4.839,7.039-4.619-3.079-2.859-8.578c1.76-5.499-5.719,8.359-4.619,17.597
		s-5.499,16.497-10.338,23.316c-4.839,6.819-2.2-3.299-6.819-2.42c-4.619,0.88-4.399,10.338-9.018,18.917
		s-18.037,21.336-18.037,16.277c0-5.059-6.599-4.399-6.599-1.54s1.54,4.179,1.54,9.678c0,5.499-0.66-2.859-4.839-7.039
		c-4.179-4.179-11.658-5.719-13.198-1.32c-1.54,4.399,0.22,11.438-1.32,11.218c-1.54-0.22-0.44-7.259-4.179-10.558
		c-3.739-3.299-8.578-4.619-8.578-4.619l10.118-3.299l8.358,2.639l8.139-3.519l6.819,2.2l7.039-5.719l0.22,2.42l8.798-7.479
		l1.54-7.699l9.898-20.236l11.658-29.695l3.519-14.298l1.54-36.074l14.957-3.959L578.511,610.636z"/>
	<path id="XMLID_483_" style="fill:#D3D8AB;" d="M556.295,575.222c0,0,0.66-9.019,13.418-6.599
		c12.758,2.42,20.236,6.379,22.656,5.719c2.419-0.66,7.919,1.76,3.739,3.959c-4.179,2.2,8.798,4.179,15.397-9.458
		c6.599-13.638,21.336-19.577,21.776-14.518c0.44,5.059-25.296,25.296-25.296,26.175c0,0.88-1.32,10.558-1.54,11.438
		c-0.22,0.88-9.458,1.1-9.458,1.1l-16.057-11.438l-12.978,6.819L556.295,575.222z"/>
	<path id="XMLID_478_" style="fill:#D3D8AB;" d="M409.801,608.363c0,0,14.078,53.964,15.837,64.522
		c1.76,10.558,0.587,14.957,1.76,20.823c1.173,5.866,9.678,25.809,8.799,13.491c-0.88-12.318,4.399-10.558,4.399-2.64
		c0,7.919,7.039,17.89,9.972,17.597c2.933-0.293,2.639-2.933,2.053-7.039c-0.587-4.106-12.318-26.689-13.198-28.448
		c-0.88-1.76-14.957-46.339-14.957-46.339l2.346-38.127l-12.904-4.986L409.801,608.363z"/>
	<path id="XMLID_477_" style="opacity:0.6;fill:#B11F24;" d="M357.45,474.92c0,0,45.312-52.791,141.655-54.551l44.432,5.279
		c0,0-46.192-15.837-82.705-15.837s98.103-14.957,150.014,45.312l14.518,14.517l6.159,7.919l-5.279,19.357
		c0,0-36.074-43.112-123.618-47.952c-87.545-4.839-143.855,47.072-143.855,47.072S354.37,484.158,357.45,474.92z"/>
	<path id="XMLID_476_" style="fill:#101212;" d="M174.002,450.724c0,0,38.713,15.837,75.227,16.277
		c36.514,0.44-3.959-8.798-13.638-15.397c-9.678-6.599,21.556,6.159,47.512,3.079c25.955-3.079,58.07-20.236,58.07-18.037
		c0,2.2-16.277,12.758-12.318,19.796c3.959,7.039,23.316-7.479,23.316-7.479l4.399,51.911
		C356.57,500.875,228.992,516.273,174.002,450.724z"/>
	<path id="XMLID_475_" style="fill:#101212;" d="M628.002,439.726c0,0,30.795,2.64,44.872-0.44
		c14.078-3.079-8.798,11.438-25.076,14.957c-16.277,3.519,19.357,14.517,61.149,6.159c41.793-8.359-16.717,14.077-6.159,14.077
		c10.558,0,68.628-12.758,81.386-30.795l25.955,10.998c0,0-54.55,60.709-185.207,46.192
		C624.923,500.875,631.082,462.602,628.002,439.726z"/>
	<path id="XMLID_474_" style="fill:#B11F24;" d="M494.852,763.216c0,0,8.505,9.385,12.025,25.809l0.587,9.092
		c0,0,7.039-15.544,7.039-24.929c0-9.385,3.519,5.279,3.519,9.972s5.572-4.399,5.572-9.678s5.866,0.293,5.866,0.293
		s0.587,1.76,0.587-5.279c0-7.039,1.173-17.01,1.173-20.53c0-3.519,4.693-7.332,4.693-7.332l9.678-9.678c0,0-0.293,1.173,0,5.279
		c0.293,4.106,4.693-11.731,4.693-16.717c0-4.986,1.466-8.212,1.466-8.212l-4.986,7.919l-8.212,14.957l-13.784,17.01l-10.851,16.424
		l-8.505,1.76L494.852,763.216z"/>
	<path id="XMLID_473_" style="fill:#B11F24;" d="M494.266,866.744c0,0,10.265-7.625,11.438-25.516l2.933,3.226
		c0,0,2.346-17.304,2.346-32.848c0,0,6.159,14.078,6.159,17.597c0,3.519,2.346-25.222,3.813-29.915
		c1.466-4.693,3.519,12.904,3.519,14.078s-3.519,23.756-4.399,26.395C519.195,842.402,494.266,866.744,494.266,866.744z"/>
	<path id="XMLID_472_" style="fill:#B11F24;" d="M552.922,798.41c0,0,2.933-9.678-1.173-19.357
		c-4.106-9.678-5.572-18.183-5.572-19.063c0-0.88-5.279,17.01-3.813,25.516C543.83,794.01,549.989,806.915,552.922,798.41z"/>
	<path id="XMLID_471_" style="fill:#B11F24;" d="M572.865,756.47c0,0,4.106-2.933-1.76-11.731
		c-5.866-8.798-5.866-23.169-5.866-23.169s-1.76,22.876,0.88,29.621c2.64,6.745-6.745-4.399-5.572-11.731
		c1.173-7.332-3.226,10.558,1.76,19.65C567.293,768.202,572.865,756.47,572.865,756.47z"/>
	<g id="XMLID_376_">
		<defs>
			<path id="XMLID_377_" d="M626.029,441.099c-21.439-29.75-49.354-46.102-74.164-55.085c-2.779,5.272-7.772,13.948-15.918,25.739
				c1.954,0.444,3.907,0.909,5.85,1.428l3.84,1.067l3.797,1.197c2.538,0.759,5.017,1.674,7.486,2.547
				c4.944,1.74,9.641,3.902,14.156,6.02c2.245,1.088,4.421,2.229,6.535,3.365c2.1,1.164,4.096,2.414,6.064,3.568
				c3.879,2.419,7.453,4.846,10.581,7.314c3.234,2.314,5.884,4.853,8.334,6.929c2.326,2.239,4.326,4.203,5.913,5.873
				c3.079,3.448,4.756,5.456,4.756,5.456s-2.122-1.582-5.692-4.415c-1.845-1.333-4.086-2.951-6.656-4.808
				c-1.325-0.862-2.734-1.779-4.22-2.745c-1.46-0.995-3.038-1.973-4.712-2.951c-3.29-2.037-6.996-4-10.889-6.078
				c-1.991-0.964-4-2.014-6.109-2.974c-2.14-0.9-4.249-1.969-6.471-2.892c-2.239-0.887-4.473-1.877-6.803-2.718
				c-1.164-0.421-2.335-0.844-3.512-1.27c-1.163-0.458-2.347-0.882-3.55-1.27c-2.395-0.804-4.795-1.65-7.259-2.343l-3.681-1.098
				l-3.725-0.979c-2.762-0.784-5.549-1.473-8.336-2.114c-5.831,8.105-13.004,17.445-21.726,27.923
				c63.03,4.82,102.261,33.609,114.623,44.112C628.27,474.845,627.161,451.819,626.029,441.099z"/>
		</defs>
		<clipPath id="XMLID_00000174571239477188738140000013422134098860319673_">
			<use xlink:href="#XMLID_377_"  style="overflow:visible;"/>
		</clipPath>
		<g id="XMLID_378_" style="opacity:0.42;clip-path:url(#XMLID_00000174571239477188738140000013422134098860319673_);">
			<g id="XMLID_379_">
				
					<rect id="XMLID_470_" x="518.513" y="543.938" transform="matrix(0.5748 0.8183 -0.8183 0.5748 672.4286 -195.198)" style="fill:#FFFFFF;" width="11.08" height="11.08"/>
				
					<rect id="XMLID_469_" x="522.022" y="523.857" transform="matrix(0.5748 0.8183 -0.8183 0.5748 657.4938 -206.6065)" style="fill:#FFFFFF;" width="11.08" height="11.08"/>
				
					<rect id="XMLID_468_" x="525.531" y="503.775" transform="matrix(0.5748 0.8183 -0.8183 0.5748 642.5534 -218.0161)" style="fill:#FFFFFF;" width="11.08" height="11.08"/>
				
					<rect id="XMLID_467_" x="529.041" y="483.693" transform="matrix(0.5748 0.8183 -0.8183 0.5748 627.6131 -229.4257)" style="fill:#FFFFFF;" width="11.08" height="11.08"/>
				
					<rect id="XMLID_466_" x="532.55" y="463.611" transform="matrix(0.5748 0.8183 -0.8183 0.5748 612.6675 -240.8358)" style="fill:#FFFFFF;" width="11.08" height="11.08"/>
				
					<rect id="XMLID_465_" x="536.059" y="443.53" transform="matrix(0.5748 0.8183 -0.8183 0.5748 597.7324 -252.2449)" style="fill:#FFFFFF;" width="11.08" height="11.08"/>
				
					<rect id="XMLID_464_" x="539.568" y="423.448" transform="matrix(0.5748 0.8183 -0.8183 0.5748 582.7921 -263.6545)" style="fill:#FFFFFF;" width="11.08" height="11.08"/>
				
					<rect id="XMLID_463_" x="543.077" y="403.366" transform="matrix(0.5748 0.8183 -0.8183 0.5748 567.8518 -275.0641)" style="fill:#FFFFFF;" width="11.08" height="11.08"/>
				
					<rect id="XMLID_462_" x="546.586" y="383.284" transform="matrix(0.5748 0.8183 -0.8183 0.5748 552.9058 -286.4737)" style="fill:#FFFFFF;" width="11.08" height="11.08"/>
				
					<rect id="XMLID_461_" x="530.534" y="535.494" transform="matrix(0.5748 0.8183 -0.8183 0.5748 670.635 -208.6237)" style="fill:#FFFFFF;" width="11.08" height="11.08"/>
				
					<rect id="XMLID_460_" x="534.043" y="515.412" transform="matrix(0.5748 0.8183 -0.8183 0.5748 655.6854 -220.0347)" style="fill:#FFFFFF;" width="11.08" height="11.08"/>
				
					<rect id="XMLID_459_" x="537.552" y="495.33" transform="matrix(0.5748 0.8183 -0.8183 0.5748 640.7543 -231.4428)" style="fill:#FFFFFF;" width="11.08" height="11.08"/>
				
					<rect id="XMLID_458_" x="541.061" y="475.249" transform="matrix(0.5748 0.8183 -0.8183 0.5748 625.814 -242.8524)" style="fill:#FFFFFF;" width="11.08" height="11.08"/>
				
					<rect id="XMLID_457_" x="544.571" y="455.167" transform="matrix(0.5748 0.8183 -0.8183 0.5748 610.8699 -254.2624)" style="fill:#FFFFFF;" width="11.08" height="11.08"/>
				
					<rect id="XMLID_456_" x="548.08" y="435.085" transform="matrix(0.5748 0.8183 -0.8183 0.5748 595.9281 -265.6719)" style="fill:#FFFFFF;" width="11.08" height="11.08"/>
				
					<rect id="XMLID_455_" x="551.589" y="415.003" transform="matrix(0.5748 0.8183 -0.8183 0.5748 580.9879 -277.0814)" style="fill:#FFFFFF;" width="11.08" height="11.08"/>
				
					<rect id="XMLID_454_" x="555.098" y="394.922" transform="matrix(0.5748 0.8183 -0.8183 0.5748 566.0527 -288.4908)" style="fill:#FFFFFF;" width="11.08" height="11.08"/>
				
					<rect id="XMLID_453_" x="558.607" y="374.84" transform="matrix(0.5748 0.8183 -0.8183 0.5748 551.1124 -299.9004)" style="fill:#FFFFFF;" width="11.08" height="11.08"/>
				
					<rect id="XMLID_452_" x="542.555" y="527.049" transform="matrix(0.5748 0.8183 -0.8183 0.5748 668.8359 -222.0504)" style="fill:#FFFFFF;" width="11.08" height="11.08"/>
				
					<rect id="XMLID_451_" x="546.064" y="506.967" transform="matrix(0.5748 0.8183 -0.8183 0.5748 653.8956 -233.46)" style="fill:#FFFFFF;" width="11.08" height="11.08"/>
				
					<rect id="XMLID_450_" x="549.573" y="486.886" transform="matrix(0.5748 0.8183 -0.8183 0.5748 638.9553 -244.8696)" style="fill:#FFFFFF;" width="11.08" height="11.08"/>
				
					<rect id="XMLID_449_" x="553.082" y="466.804" transform="matrix(0.5748 0.8183 -0.8183 0.5748 624.0095 -256.2796)" style="fill:#FFFFFF;" width="11.08" height="11.08"/>
				
					<rect id="XMLID_448_" x="556.591" y="446.722" transform="matrix(0.5748 0.8183 -0.8183 0.5748 609.0745 -267.6887)" style="fill:#FFFFFF;" width="11.08" height="11.08"/>
				
					<rect id="XMLID_447_" x="560.101" y="426.64" transform="matrix(0.5748 0.8183 -0.8183 0.5748 594.1343 -279.0983)" style="fill:#FFFFFF;" width="11.08" height="11.08"/>
				
					<rect id="XMLID_446_" x="563.61" y="406.559" transform="matrix(0.5748 0.8183 -0.8183 0.5748 579.1946 -290.5079)" style="fill:#FFFFFF;" width="11.08" height="11.08"/>
				
					<rect id="XMLID_445_" x="567.119" y="386.477" transform="matrix(0.5748 0.8183 -0.8183 0.5748 564.2484 -301.9174)" style="fill:#FFFFFF;" width="11.08" height="11.08"/>
				
					<rect id="XMLID_444_" x="570.628" y="366.395" transform="matrix(0.5748 0.8183 -0.8183 0.5748 549.3132 -313.3271)" style="fill:#FFFFFF;" width="11.08" height="11.08"/>
				
					<rect id="XMLID_443_" x="554.576" y="518.604" transform="matrix(0.5748 0.8183 -0.8183 0.5748 667.0328 -235.4777)" style="fill:#FFFFFF;" width="11.08" height="11.08"/>
				
					<rect id="XMLID_442_" x="558.085" y="498.523" transform="matrix(0.5748 0.8183 -0.8183 0.5748 652.0909 -246.8873)" style="fill:#FFFFFF;" width="11.08" height="11.08"/>
				
					<rect id="XMLID_441_" x="561.594" y="478.441" transform="matrix(0.5748 0.8183 -0.8183 0.5748 637.1561 -258.2962)" style="fill:#FFFFFF;" width="11.08" height="11.08"/>
				
					<rect id="XMLID_440_" x="565.103" y="458.359" transform="matrix(0.5748 0.8183 -0.8183 0.5748 622.212 -269.7061)" style="fill:#FFFFFF;" width="11.08" height="11.08"/>
				
					<rect id="XMLID_439_" x="568.612" y="438.278" transform="matrix(0.5748 0.8183 -0.8183 0.5748 607.2755 -281.1155)" style="fill:#FFFFFF;" width="11.08" height="11.08"/>
				
					<rect id="XMLID_438_" x="572.121" y="418.196" transform="matrix(0.5748 0.8183 -0.8183 0.5748 592.3291 -292.5251)" style="fill:#FFFFFF;" width="11.08" height="11.08"/>
				
					<rect id="XMLID_437_" x="575.631" y="398.114" transform="matrix(0.5748 0.8183 -0.8183 0.5748 577.3911 -303.9346)" style="fill:#FFFFFF;" width="11.08" height="11.08"/>
				
					<rect id="XMLID_419_" x="579.14" y="378.032" transform="matrix(0.5748 0.8183 -0.8183 0.5748 562.4552 -315.3442)" style="fill:#FFFFFF;" width="11.08" height="11.08"/>
				
					<rect id="XMLID_418_" x="582.649" y="357.951" transform="matrix(0.5748 0.8183 -0.8183 0.5748 547.5142 -326.7538)" style="fill:#FFFFFF;" width="11.08" height="11.08"/>
				
					<rect id="XMLID_417_" x="566.596" y="510.16" transform="matrix(0.5748 0.8183 -0.8183 0.5748 665.2377 -248.9038)" style="fill:#FFFFFF;" width="11.08" height="11.08"/>
				
					<rect id="XMLID_416_" x="570.106" y="490.078" transform="matrix(0.5748 0.8183 -0.8183 0.5748 650.2974 -260.3134)" style="fill:#FFFFFF;" width="11.08" height="11.08"/>
				
					<rect id="XMLID_415_" x="573.615" y="469.996" transform="matrix(0.5748 0.8183 -0.8183 0.5748 635.3578 -271.7229)" style="fill:#FFFFFF;" width="11.08" height="11.08"/>
				
					<rect id="XMLID_414_" x="577.124" y="449.915" transform="matrix(0.5748 0.8183 -0.8183 0.5748 620.4112 -283.1328)" style="fill:#FFFFFF;" width="11.08" height="11.08"/>
				
					<rect id="XMLID_413_" x="580.633" y="429.833" transform="matrix(0.5748 0.8183 -0.8183 0.5748 605.4764 -294.5421)" style="fill:#FFFFFF;" width="11.08" height="11.08"/>
				
					<rect id="XMLID_412_" x="584.142" y="409.751" transform="matrix(0.5748 0.8183 -0.8183 0.5748 590.536 -305.9518)" style="fill:#FFFFFF;" width="11.08" height="11.08"/>
				
					<rect id="XMLID_411_" x="587.652" y="389.669" transform="matrix(0.5748 0.8183 -0.8183 0.5748 575.5949 -317.3614)" style="fill:#FFFFFF;" width="11.08" height="11.08"/>
				
					<rect id="XMLID_410_" x="591.161" y="369.588" transform="matrix(0.5748 0.8183 -0.8183 0.5748 560.6502 -328.7707)" style="fill:#FFFFFF;" width="11.08" height="11.08"/>
				
					<rect id="XMLID_409_" x="594.67" y="349.506" transform="matrix(0.5748 0.8183 -0.8183 0.5748 545.7158 -340.1806)" style="fill:#FFFFFF;" width="11.08" height="11.08"/>
				
					<rect id="XMLID_408_" x="578.617" y="501.715" transform="matrix(0.5748 0.8183 -0.8183 0.5748 663.4386 -262.3305)" style="fill:#FFFFFF;" width="11.08" height="11.08"/>
				
					<rect id="XMLID_407_" x="582.126" y="481.634" transform="matrix(0.5748 0.8183 -0.8183 0.5748 648.4918 -273.7406)" style="fill:#FFFFFF;" width="11.08" height="11.08"/>
				
					<rect id="XMLID_404_" x="585.636" y="461.552" transform="matrix(0.5748 0.8183 -0.8183 0.5748 633.554 -285.1499)" style="fill:#FFFFFF;" width="11.08" height="11.08"/>
				
					<rect id="XMLID_403_" x="589.145" y="441.47" transform="matrix(0.5748 0.8183 -0.8183 0.5748 618.6184 -296.5593)" style="fill:#FFFFFF;" width="11.08" height="11.08"/>
				
					<rect id="XMLID_402_" x="592.654" y="421.388" transform="matrix(0.5748 0.8183 -0.8183 0.5748 603.6772 -307.9689)" style="fill:#FFFFFF;" width="11.08" height="11.08"/>
				
					<rect id="XMLID_401_" x="596.163" y="401.307" transform="matrix(0.5748 0.8183 -0.8183 0.5748 588.7278 -319.3783)" style="fill:#FFFFFF;" width="11.08" height="11.08"/>
				
					<rect id="XMLID_400_" x="599.672" y="381.225" transform="matrix(0.5748 0.8183 -0.8183 0.5748 573.7966 -330.788)" style="fill:#FFFFFF;" width="11.08" height="11.08"/>
				
					<rect id="XMLID_399_" x="603.182" y="361.143" transform="matrix(0.5748 0.8183 -0.8183 0.5748 558.8555 -342.1976)" style="fill:#FFFFFF;" width="11.08" height="11.08"/>
				
					<rect id="XMLID_398_" x="606.691" y="341.061" transform="matrix(0.5748 0.8183 -0.8183 0.5748 543.9159 -353.6072)" style="fill:#FFFFFF;" width="11.08" height="11.08"/>
				
					<rect id="XMLID_397_" x="590.638" y="493.271" transform="matrix(0.5748 0.8183 -0.8183 0.5748 661.6395 -275.7572)" style="fill:#FFFFFF;" width="11.08" height="11.08"/>
				
					<rect id="XMLID_396_" x="594.147" y="473.189" transform="matrix(0.5748 0.8183 -0.8183 0.5748 646.6992 -287.1668)" style="fill:#FFFFFF;" width="11.08" height="11.08"/>
				
					<rect id="XMLID_395_" x="597.656" y="453.107" transform="matrix(0.5748 0.8183 -0.8183 0.5748 631.7579 -298.5764)" style="fill:#FFFFFF;" width="11.08" height="11.08"/>
				
					<rect id="XMLID_394_" x="601.166" y="433.025" transform="matrix(0.5748 0.8183 -0.8183 0.5748 616.813 -309.9861)" style="fill:#FFFFFF;" width="11.08" height="11.08"/>
				
					<rect id="XMLID_393_" x="604.675" y="412.944" transform="matrix(0.5748 0.8183 -0.8183 0.5748 601.879 -321.3956)" style="fill:#FFFFFF;" width="11.08" height="11.08"/>
				
					<rect id="XMLID_392_" x="608.184" y="392.862" transform="matrix(0.5748 0.8183 -0.8183 0.5748 586.9378 -332.8052)" style="fill:#FFFFFF;" width="11.08" height="11.08"/>
				
					<rect id="XMLID_391_" x="611.693" y="372.78" transform="matrix(0.5748 0.8183 -0.8183 0.5748 571.9975 -344.2148)" style="fill:#FFFFFF;" width="11.08" height="11.08"/>
				
					<rect id="XMLID_390_" x="615.202" y="352.698" transform="matrix(0.5748 0.8183 -0.8183 0.5748 557.0519 -355.6239)" style="fill:#FFFFFF;" width="11.08" height="11.08"/>
				
					<rect id="XMLID_389_" x="618.712" y="332.617" transform="matrix(0.5748 0.8183 -0.8183 0.5748 542.116 -367.0338)" style="fill:#FFFFFF;" width="11.08" height="11.08"/>
				
					<rect id="XMLID_388_" x="602.659" y="484.826" transform="matrix(0.5748 0.8183 -0.8183 0.5748 659.8347 -289.1843)" style="fill:#FFFFFF;" width="11.08" height="11.08"/>
				
					<rect id="XMLID_387_" x="606.168" y="464.744" transform="matrix(0.5748 0.8183 -0.8183 0.5748 644.8903 -300.5939)" style="fill:#FFFFFF;" width="11.08" height="11.08"/>
				
					<rect id="XMLID_386_" x="609.677" y="444.663" transform="matrix(0.5748 0.8183 -0.8183 0.5748 629.9597 -312.0031)" style="fill:#FFFFFF;" width="11.08" height="11.08"/>
				
					<rect id="XMLID_385_" x="613.187" y="424.581" transform="matrix(0.5748 0.8183 -0.8183 0.5748 615.0186 -323.4127)" style="fill:#FFFFFF;" width="11.08" height="11.08"/>
				
					<rect id="XMLID_384_" x="616.696" y="404.499" transform="matrix(0.5748 0.8183 -0.8183 0.5748 600.0696 -334.822)" style="fill:#FFFFFF;" width="11.08" height="11.08"/>
				
					<rect id="XMLID_383_" x="620.205" y="384.417" transform="matrix(0.5748 0.8183 -0.8183 0.5748 585.1342 -346.2316)" style="fill:#FFFFFF;" width="11.08" height="11.08"/>
				
					<rect id="XMLID_382_" x="623.714" y="364.336" transform="matrix(0.5748 0.8183 -0.8183 0.5748 570.1984 -357.6414)" style="fill:#FFFFFF;" width="11.08" height="11.08"/>
				
					<rect id="XMLID_381_" x="627.223" y="344.254" transform="matrix(0.5748 0.8183 -0.8183 0.5748 555.2543 -369.0507)" style="fill:#FFFFFF;" width="11.08" height="11.08"/>
				
					<rect id="XMLID_380_" x="630.732" y="324.172" transform="matrix(0.5748 0.8183 -0.8183 0.5748 540.3177 -380.4607)" style="fill:#FFFFFF;" width="11.08" height="11.08"/>
			</g>
		</g>
	</g>
</g>
<g id="outline">
	<path id="XMLID_660_" d="M503.972,715.073c-2.269-0.244-7.425,0.579-7.516,0.593c-1.3,0.404-2.386,0.831-2.577,1.213
		c-0.586,1.173,0.293,3.006,0.88,4.839c0.587,1.833,7.002,5.023,10.045,1.98c3.042-3.043,1.98-0.806,1.98-4.326
		C506.784,716.856,505.972,715.473,503.972,715.073z"/>
	<path id="XMLID_669_" d="M521.865,648.874c1.21-4.839-0.55-15.397-0.55-15.397c-1.782,5.509-10.118,6.819-10.668,7.369
		c-0.55,0.55-0.77,11.658-0.77,11.658C509.877,653.713,520.656,653.713,521.865,648.874z"/>
	<path id="XMLID_653_" d="M498.816,714.288c0.002,0,0.004-0.001,0.006-0.001c0.019-0.002,0.046-0.005,0.065-0.007
		c0.8-0.088,1.522-0.153,2.066-0.177c0.526-0.037,1.044-0.069,1.477-0.095c0.288-0.032,0.631-0.052,1.032-0.058
		c0.017-0.001,0.059-0.003,0.059-0.003l0.004,0.002c0.062-0.001,0.115-0.004,0.18-0.004c1.89,0,2.964,0.374,3.604,1.575
		c0.443-0.534,1.854-1.751,6.208-3.281l0.005,0.009c1.175-0.522,2.536-1.017,4.114-1.381c0.198-0.046,0.373-0.041,0.558-0.057
		l0.542-0.896c0,0,4.326-4.399,4.766-5.792c0.44-1.393,2.126-1.76,1.613-5.573c-0.479-3.559-0.912-6.926-0.344-7.99
		c0.008-0.025-0.003-0.041,0.01-0.068c0.472-1.018,1.931-1.511,1.931-1.511h0.009c0.575-0.596,2.207-1.603,2.207-3.116
		c0-1.833-0.88-2.933,0-5.059c0.88-2.126,5.23-6.012,5.695-7.332c0.464-1.32,1.784-8.285,4.864-8.725
		c3.08-0.44,4.619-0.66,5.206-2.859c0.587-2.2,1.1-9.385,0.073-10.412c-0.595-0.595-0.889-1.648-1.036-2.436
		c-1.111,0.007-1.846-0.056-1.846-0.056c-1.76,3.189-5.829,2.42-5.829,2.42s-3.629,6.269-6.709,6.269
		c-3.08,0-6.929-4.509-6.929-4.509s-0.77,1.87-6.819,2.64c-6.049,0.77-7.369-1.65-7.369-1.65c-0.66,2.64-3.409,4.399-8.469,4.399
		c-3.704,0-6.569-0.015-8.105-1.44c-1.535,1.425-4.4,1.44-8.105,1.44c-5.059,0-7.809-1.76-8.469-4.399c0,0-1.32,2.42-7.369,1.65
		c-6.049-0.77-6.819-2.64-6.819-2.64s-3.849,4.509-6.929,4.509c-3.079,0-6.709-6.269-6.709-6.269s-4.069,0.77-5.829-2.42
		c0,0-0.518,0.043-1.327,0.054c-0.142,0.795-0.437,1.899-1.05,2.512c-1.026,1.026-0.513,8.212,0.073,10.411
		c0.586,2.2,2.126,2.42,5.206,2.859c3.079,0.44,4.399,7.406,4.864,8.725c0.464,1.32,4.815,5.206,5.694,7.332
		c0.88,2.127,0,3.226,0,5.059c0,1.513,1.631,2.52,2.207,3.116h0.009c0,0,1.459,0.493,1.931,1.511
		c0.012,0.026,0.001,0.043,0.009,0.068c0.569,1.063,0.135,4.43-0.344,7.99c-0.513,3.812,1.173,4.179,1.613,5.572
		c0.44,1.393,4.766,5.792,4.766,5.792l0.542,0.896c0.185,0.016,0.36,0.012,0.558,0.058c1.578,0.364,2.939,0.858,4.114,1.381
		l0.005-0.009c4.354,1.53,5.765,2.747,6.207,3.282c0.64-1.201,1.714-1.575,3.604-1.575c0.065,0,0.118,0.003,0.18,0.003l0.003-0.002
		c0,0,0.042,0.002,0.059,0.003c0.401,0.006,0.745,0.026,1.032,0.058c0.433,0.026,0.951,0.058,1.477,0.095
		c0.544,0.024,1.266,0.089,2.065,0.177c0.02,0.003,0.046,0.005,0.065,0.007c0.002,0,0.004,0.001,0.006,0.001
		c2.855,0.316,6.623,0.904,6.623,0.904s0.127,1.226,0.283,2.82c0.159-1.629,0.29-2.893,0.29-2.893S495.961,714.604,498.816,714.288z
		"/>
	<path id="XMLID_656_" d="M524.115,508.834c0.221,0,0.443,0.021,0.664,0.06c2.323,0.426,3.12,2.193,5.484,7.441
		c2.58,5.724,6.899,15.306,11.566,18.525c8.237,5.681,27.803,10.611,36.085,9.113c7.938-1.443,23.8-14.907,23.8-28.799
		c0-14.6-13.471-34.606-21.116-34.606c-9.796,0-49.235,13.153-55.581,19.498c-2.805,2.806-5.003,7.656-6.545,12.161
		c1.568-1.145,2.719-2.014,3.051-2.325C522.208,509.215,523.146,508.834,524.115,508.834z"/>
	<path id="XMLID_668_" d="M479.378,594.045c1.002,0.086,1.139-0.161,1.186-0.244c1.865-3.299,2.136-5.999,2.353-8.168
		c0.204-2.048,0.418-4.167,2.036-5.786c2.153-2.155,5.09-3.507,5.418-3.655h2.834c0.327,0.148,3.262,1.5,5.415,3.655
		c1.619,1.619,1.832,3.738,2.036,5.786c0.216,2.169,0.488,4.868,2.353,8.168c0.046,0.082,0.179,0.323,1.186,0.244
		c4.281-0.361,11.151-5.714,12.161-7.862c-0.089-1.064-0.711-2.461-1.617-4.495c-1.428-3.203-3.583-8.042-5.597-16.095
		c-4.202-16.806-9.407-32.805-12.048-37.301c-0.693,0.636-5.307,1.478-5.307,1.478s-4.612-0.839-5.307-1.476
		c-2.641,4.497-7.845,20.494-12.046,37.299c-2.014,8.054-4.171,12.893-5.597,16.095c-0.907,2.035-1.529,3.432-1.619,4.495
		C468.227,588.333,475.099,593.684,479.378,594.045z"/>
	<path id="XMLID_717_" d="M431.503,626.107c0.302-1.118,1.111-1.769,2.106-3.029c0.966-1.181,1.762-2.627,2.3-4.066
		c0.58-1.449,0.961-2.927,1.243-4.393c0.325-1.478,0.448-2.931,0.609-4.397c0.067-1.447,0.22-2.919,0.174-4.35
		c-0.003-1.44,0.01-2.884-0.109-4.324c-0.089-1.431-0.153-2.918-0.332-4.273c-0.156-1.411-0.285-2.703-0.515-4.207
		c-0.258-1.449-0.53-2.896-0.834-4.334c-0.281-1.442-0.834-2.89-1.275-4.315c-0.421-1.434-1.25-2.843-1.879-4.232
		c-0.375-0.693-0.889-1.357-1.338-2.02l-0.696-0.985c-0.284-0.31-0.587-0.615-0.89-0.91c-1.135-1.206-2.613-2.254-4.237-2.881
		c-0.839-0.28-1.646-0.606-2.526-0.616l-1.273-0.099c-0.418,0.029-0.832,0.093-1.239,0.147c-1.627,0.229-3.095,0.818-4.376,1.6
		c-1.287,0.77-2.41,1.739-3.322,2.853c0.453-0.174,0.903-0.313,1.353-0.458c0.848-0.485,1.435-0.784,1.435-0.784l6.376-0.518
		l6.746,6.012l5.572,24.122l-3.226,20.53l-0.198,0.854c0.107-0.26,0.233-0.516,0.336-0.777L431.503,626.107z"/>
	<path id="XMLID_727_" d="M397.405,668.716c0.071,0.119,0.177,0.299,0.295,0.504c0.062-8.444,1.275-39.862,6.386-54.015
		c0.164-0.453,0.328-0.887,0.491-1.331c-0.396,0.088-0.648,0.208-0.648,0.208l2.151-11.981c0,0,0.928-16.614,1.808-19.547
		c0.168-0.559,0.565-1.142,1.093-1.72c-2.217-1.703-6.265-3.125-12.419,0.75c-3.605,2.273-7.135,5.803-9.713,8.381
		c-1.619,1.619-3.861,0.933-4.753,0.565c-2.177-0.902-3.757-2.868-3.757-4.676c0-4.063-2.564-6.513-5.804-9.029
		c-1.88,1.503-3.757,3.004-5.676,4.521c2.835,2.148,4.44,3.416,4.44,4.508c0,4.679,3.257,9.171,8.103,11.178
		c4.509,1.868,9.269,1.065,12.423-2.091c2.473-2.473,5.551-5.551,8.489-7.401c3.385-2.134,4.279-1.249,4.571-0.957
		c2.083,2.085-0.404,8.31-3.554,16.195c-1.186,2.968-2.53,6.331-3.867,10.036c-6.408,17.747-6.809,56.685-6.809,57.066
		c0,1.564,0.587,2.831,1.558,3.939c-0.307-0.552-0.6-1.066-0.861-1.504L397.405,668.716z"/>
	<path id="XMLID_728_" d="M403.356,680.647c0.015,0.036,0.03,0.073,0.044,0.109c0.143,0.079,0.286,0.158,0.431,0.237
		C403.671,680.88,403.518,680.754,403.356,680.647z"/>
	<path id="XMLID_729_" d="M363.429,569.08c-2.469-2.614-5.006-5.935-7.363-10.388c-4.984-9.414-2.471-11.187,2.533-14.722
		c2.779-1.962,5.929-4.186,7.901-7.955c4.033-7.699-1.667-13.988-5.829-18.582c-1.772-1.954-4.196-4.629-4.196-5.927
		c0-3.258,5.882-3.971,5.927-3.977l7.424-0.717l-5.274-5.274c-1.154-1.154-2.149-2.672-3.015-4.453
		c9.021-7.997,53.982-44.211,128.043-44.935c2.162-2.337,4.3-4.675,6.404-7.013c-1.387-0.024-2.764-0.059-4.171-0.059v-0.001
		c-0.009,0-0.017,0-0.026,0c-0.009,0-0.017,0-0.026,0v0.001c-73.655,0.016-119.216,33.339-132.725,44.817
		c-3.727-15.052-2.621-38.078-1.492-48.798c49.357-68.492,133.266-66.004,134.128-65.971h0.232
		c0.428-0.008,22.424-0.682,50.431,7.733c1.065-2.017,2.061-4.009,2.974-5.972l9.495,3.116c0,0-0.858,2.061-2.938,6.008
		c24.81,8.984,52.724,25.335,74.164,55.085c1.132,10.719,2.241,33.745-1.489,48.799c-12.361-10.503-51.593-39.292-114.623-44.112
		c-1.814,2.178-3.705,4.414-5.656,6.691c67.827,3.747,109.156,36.996,117.775,44.613c-0.866,1.78-1.861,3.296-3.015,4.45
		l-5.197,5.214l7.331,0.777c0.06,0.005,5.944,0.718,5.944,3.977c0,1.296-2.425,3.973-4.196,5.927
		c-4.162,4.593-9.864,10.883-5.831,18.582c1.973,3.769,5.123,5.992,7.901,7.955c5.006,3.535,7.516,5.308,2.535,14.722
		c-4.995,9.436-10.804,13.832-15.045,17.042c-3.88,2.939-7.231,5.475-7.231,10.12c0,1.808-1.579,3.774-3.756,4.676
		c-0.892,0.368-3.134,1.053-4.753-0.565c-2.578-2.578-6.107-6.107-9.713-8.381c-5.995-3.779-9.982-2.524-12.236-0.882
		c0.556,0.597,0.978,1.201,1.151,1.779c0.88,2.933,1.808,19.547,1.808,19.547l2.151,11.981c0,0-0.371-0.178-0.934-0.257
		c0.179,0.483,0.358,0.958,0.537,1.453c5.142,14.237,6.339,45.956,6.387,54.174c-0.772,0.744-3.124,1.992-4.729,2.841
		c-3.52,1.865-7.819,4.155-10.663,7.541l1.658,5.474c3.066-1.727,7.043-3.951,10.202-5.666c2.416-5.577,4.89-9.839,5.494-10.853
		l4.801,2.856c0.165-0.528,0.278-1.082,0.278-1.692c0-0.381-0.4-39.32-6.809-57.066c-1.337-3.705-2.681-7.068-3.867-10.036
		c-3.15-7.884-5.636-14.11-3.554-16.195c0.294-0.292,1.187-1.177,4.571,0.957c2.939,1.851,6.016,4.928,8.489,7.401
		c3.153,3.157,7.913,3.958,12.423,2.091c4.846-2.007,8.102-6.499,8.102-11.178c0-1.091,1.605-2.359,4.442-4.508
		c4.495-3.404,11.29-8.547,17.016-19.362c7.879-14.883,0.612-20.017-4.695-23.764c-2.335-1.648-4.542-3.207-5.728-5.47
		c-1.634-3.122,0.727-6.083,4.812-10.589c2.959-3.267,6.02-6.644,6.02-10.654c0-2.713-1.003-4.803-2.466-6.417
		c-4.293-0.248-6.754-0.484-6.846-0.493l0.699-7.004c0.13,0.013,1.466,0.137,3.796,0.293c7.699-19.252,4.116-53.946,3.604-58.481
		l-0.101-0.904l-0.528-0.741c-50.486-70.941-136.183-69.79-140.501-69.67c-4.148-0.125-89.978-1.352-140.518,69.67l-0.528,0.741
		l-0.101,0.904c-0.513,4.535-4.096,39.23,3.604,58.482c2.331-0.156,3.668-0.28,3.797-0.293l0.699,7.004
		c-0.092,0.009-2.554,0.245-6.846,0.493c-1.463,1.613-2.466,3.704-2.466,6.417c0,4.011,3.061,7.388,6.018,10.653
		c4.085,4.508,6.446,7.468,4.812,10.591c-1.186,2.263-3.392,3.822-5.728,5.47c-5.307,3.748-12.574,8.881-4.693,23.764
		c5.724,10.814,12.519,15.959,17.016,19.362l-8.85-7.922C358.011,573.425,359.937,571.912,363.429,569.08z"/>
	<path id="XMLID_730_" d="M402.428,672.22c-1.505-0.796-3.651-1.938-4.551-2.691c1.052,1.833,3.317,5.96,5.458,11.068l11.724,2.238
		C412.68,677.67,406.92,674.601,402.428,672.22z"/>
	<path id="XMLID_731_" d="M476.005,532.468l-1.525-8.391c-0.061-0.337-0.812-4.333-2.418-9.244
		c-1.877,3.439-4.085,6.907-6.549,10.311c1.351,0.955,2.6,1.828,3.494,2.451L476.005,532.468z"/>
	<path id="XMLID_734_" d="M523.094,517.565c0.253,0.553,0.512,1.127,0.753,1.662c3.068,6.807,7.704,17.093,13.987,21.427
		c7.736,5.336,25.107,10.62,36.606,10.62c1.728,0,3.324-0.12,4.734-0.376c11.68-2.124,29.579-18.973,29.579-35.725
		c0-16.822-14.831-41.645-28.155-41.645c-10.509,0-52.364,13.364-60.558,21.56c-7.728,7.726-10.818,24.326-10.947,25.029
		l-1.526,8.391l6.999-4.873C516.563,522.245,520.296,519.627,523.094,517.565z M525.016,500.065
		c6.346-6.345,45.785-19.498,55.581-19.498c7.645,0,21.116,20.006,21.116,34.606c0,13.892-15.862,27.356-23.8,28.799
		c-8.282,1.499-27.848-3.432-36.085-9.113c-4.667-3.219-8.986-12.801-11.566-18.525c-2.365-5.248-3.161-7.015-5.484-7.441
		c-0.221-0.039-0.443-0.06-0.664-0.06c-0.968,0-1.907,0.382-2.592,1.067c-0.332,0.311-1.483,1.181-3.051,2.325
		C520.013,507.72,522.211,502.871,525.016,500.065z"/>
	<path id="XMLID_737_" d="M476.357,600.628c1.263,0.332,2.387,0.473,3.385,0.473c4.243,0,6.221-2.549,6.949-3.836
		c2.593-4.588,2.976-8.407,3.229-10.933c0.057-0.576,0.132-1.334,0.218-1.708c0.495-0.453,1.094-0.864,1.647-1.206
		c0.553,0.342,1.152,0.754,1.647,1.206c0.086,0.375,0.162,1.133,0.218,1.708c0.253,2.526,0.636,6.344,3.229,10.933
		c0.729,1.289,2.708,3.836,6.949,3.836c0.998,0,2.124-0.141,3.387-0.473c6.245-1.645,16.19-8.804,16.19-14.188
		c0-2.591-0.988-4.81-2.239-7.618c-1.406-3.157-3.332-7.48-5.197-14.938c-10.785-43.138-15.712-43.138-18.08-43.138
		c-2.525,0-4.569,1.335-6.105,2.892c-1.535-1.557-3.58-2.892-6.105-2.892c-2.368,0-7.293,0-18.078,43.138
		c-1.865,7.458-3.791,11.782-5.198,14.938c-1.251,2.808-2.239,5.026-2.239,7.618C460.166,591.826,470.113,598.985,476.357,600.628z
		 M468.836,581.687c1.426-3.201,3.583-8.041,5.597-16.095c4.202-16.805,9.405-32.802,12.046-37.299
		c0.696,0.638,5.307,1.476,5.307,1.476s4.615-0.842,5.307-1.478c2.641,4.495,7.846,20.494,12.048,37.301
		c2.014,8.053,4.169,12.892,5.597,16.095c0.906,2.035,1.528,3.432,1.617,4.495c-1.01,2.148-7.881,7.501-12.161,7.862
		c-1.007,0.079-1.139-0.161-1.186-0.244c-1.865-3.299-2.136-5.999-2.353-8.168c-0.204-2.048-0.418-4.167-2.036-5.786
		c-2.153-2.155-5.088-3.507-5.415-3.655h-2.834c-0.328,0.148-3.265,1.5-5.418,3.655c-1.619,1.619-1.832,3.738-2.036,5.786
		c-0.216,2.169-0.488,4.868-2.353,8.168c-0.046,0.082-0.184,0.33-1.186,0.244c-4.279-0.361-11.151-5.712-12.161-7.862
		C467.306,585.119,467.928,583.722,468.836,581.687z"/>
	<path id="XMLID_738_" d="M549.237,605.578l5.572-24.122l6.746-6.012l6.376,0.518c0,0,0.885,0.449,2.063,1.151
		c0.162,0.059,0.323,0.102,0.485,0.165c-0.912-1.114-2.036-2.083-3.322-2.853c-1.281-0.782-2.748-1.37-4.376-1.6
		c-0.407-0.054-0.822-0.118-1.239-0.147l-1.273,0.099c-0.88,0.01-1.686,0.335-2.526,0.616c-1.624,0.628-3.102,1.675-4.237,2.881
		c-0.303,0.295-0.606,0.6-0.89,0.91l-0.696,0.985c-0.449,0.663-0.962,1.327-1.338,2.02c-0.629,1.389-1.457,2.798-1.879,4.232
		c-0.441,1.425-0.994,2.874-1.275,4.315c-0.304,1.438-0.577,2.885-0.835,4.334c-0.229,1.505-0.358,2.796-0.514,4.207
		c-0.18,1.355-0.245,2.842-0.333,4.273c-0.119,1.44-0.106,2.884-0.109,4.324c-0.046,1.431,0.107,2.902,0.174,4.35
		c0.161,1.466,0.284,2.919,0.609,4.397c0.283,1.466,0.663,2.945,1.243,4.393c0.538,1.439,1.334,2.885,2.3,4.066
		c0.994,1.26,1.804,1.911,2.106,3.029l0.014,0.15c0.272,0.691,0.589,1.374,0.891,2.059l-0.513-2.209L549.237,605.578z"/>
	<path id="XMLID_741_" d="M358.049,497.593c-0.13,0.013-1.466,0.138-3.797,0.293c-20.524,1.372-119.495,5.213-176.249-42.213
		c21.646-9.402,103.976-48.85,147.923-121.84c12.387-20.572,22.015-41.296,31.327-61.34
		C386.22,210.147,409.102,160.9,491.787,160.89c82.684,0.011,105.566,49.257,134.532,111.604
		c9.312,20.042,18.941,40.768,31.327,61.34c43.947,72.989,126.277,112.438,147.923,121.84
		c-56.754,47.425-155.727,43.583-176.248,42.213c-2.33-0.156-3.666-0.28-3.796-0.293l-0.699,7.004
		c0.092,0.009,2.553,0.245,6.846,0.493c4.86,0.281,12.075,0.577,20.984,0.577c13.784,0,31.568-0.71,50.71-3.284
		c56.561-7.608,99.438-27.985,123.998-58.931l2.866-3.612l-4.239-1.811c-1.359-0.581-136.343-59.531-181.068-187.967
		c-24.075-69.14-65.198-97.689-95.458-109.464c-26.756-10.414-49.44-10.323-57.608-9.7c-8.169-0.623-30.997-0.712-57.75,9.7
		c-30.258,11.775-71.383,40.323-95.458,109.464c-44.693,128.349-179.71,187.386-181.068,187.967l-4.239,1.813l2.866,3.611
		c24.56,30.946,67.439,51.323,124,58.931c19.145,2.574,36.924,3.284,50.71,3.284c8.908,0,16.123-0.296,20.984-0.577
		c4.293-0.248,6.754-0.484,6.846-0.493L358.049,497.593z M164.598,442.552c10.49-4.985,39.069-19.559,70.872-44.257
		c36.902-28.657,85.909-77.232,109.826-145.919c18.307-52.573,49.785-88.911,91.035-105.088c23.679-9.29,44.441-9.526,53.208-9.083
		l4.494-0.006c8.711-0.449,29.268-0.226,52.88,8.961c28.878,11.237,68.171,38.614,91.363,105.217
		c23.917,68.686,72.924,117.262,109.826,145.919c31.803,24.698,60.383,39.272,70.872,44.257c-2.407,2.786-4.952,5.424-7.6,7.946
		c-14.468-6.003-102.269-44.844-147.696-120.293c-12.192-20.25-21.742-40.801-30.975-60.677
		c-28.833-62.058-53.737-115.655-140.891-115.676v-0.001c-0.009,0-0.017,0-0.026,0s-0.017,0-0.026,0v0.001
		c-87.155,0.022-112.059,53.619-140.892,115.678c-9.233,19.874-18.783,40.425-30.975,60.675
		c-45.427,75.449-133.228,114.29-147.696,120.293C169.55,447.976,167.005,445.338,164.598,442.552z"/>
	<path id="XMLID_742_" d="M447.986,423.511c-2.137,0.439-4.327,0.79-6.473,1.385c-2.148,0.591-4.314,1.187-6.488,1.785
		c-2.164,0.633-4.368,1.167-6.492,1.96c-4.254,1.555-8.593,2.883-12.652,4.745c-2.056,0.861-4.081,1.75-6.076,2.636
		c-1.955,0.974-3.886,1.937-5.786,2.883c-3.843,1.794-7.312,4.021-10.677,5.946c-3.296,2.058-6.379,4.051-9.104,6.065
		c-1.362,1.004-2.667,1.965-3.908,2.88c-1.195,0.976-2.328,1.902-3.393,2.773c-2.151,1.701-3.862,3.4-5.317,4.718
		c-2.844,2.734-4.278,4.469-4.278,4.469s0.465-0.315,1.337-0.904c0.851-0.605,2.178-1.396,3.799-2.468
		c1.673-1.009,3.656-2.281,6.003-3.625c1.169-0.674,2.412-1.391,3.723-2.147c1.325-0.727,2.718-1.49,4.172-2.287
		c1.433-0.824,2.985-1.584,4.581-2.379c1.604-0.782,3.197-1.698,4.908-2.507c3.445-1.578,7.002-3.359,10.804-4.948
		c1.889-0.814,3.809-1.642,5.753-2.48c1.985-0.74,3.988-1.497,5.993-2.295c3.984-1.662,8.193-2.919,12.319-4.39
		c2.05-0.781,4.178-1.319,6.268-1.95c2.092-0.628,4.176-1.253,6.244-1.874c4.186-1.075,8.306-2.133,12.293-3.157
		c4.019-0.894,7.938-1.627,11.642-2.443c0.928-0.195,1.844-0.388,2.745-0.579c0.909-0.141,1.805-0.281,2.685-0.418
		c1.763-0.289,3.467-0.568,5.103-0.836c1.64-0.273,3.211-0.534,4.706-0.784c0.748-0.132,1.478-0.262,2.187-0.387
		c0.713-0.082,1.405-0.162,2.076-0.239c2.687-0.292,5.033-0.62,6.971-0.875c3.875-0.52,6.105-0.9,6.105-0.9s-2.223-0.235-6.142-0.5
		c-1.959-0.127-4.345-0.301-7.086-0.415c-2.748-0.232-5.827-0.008-9.205,0.077c-3.368,0.174-7.065,0.074-10.898,0.655
		c-3.843,0.479-7.939,0.817-12.108,1.566C452.24,422.675,450.126,423.09,447.986,423.511z"/>
	<path id="XMLID_743_" d="M496.883,406.78c-4.54-0.123-8.831-0.099-12.786,0.073c-3.954,0.109-7.571,0.409-10.767,0.708
		c-3.197,0.29-5.972,0.672-8.249,1.01c-2.279,0.322-4.056,0.692-5.266,0.926c-1.206,0.254-1.849,0.389-1.849,0.389
		s0.656-0.004,1.886-0.012c1.227,0.02,3.027,0.049,5.317,0.086c4.573,0.107,11.087,0.35,18.857,0.916
		c3.885,0.265,8.078,0.711,12.505,1.127c4.421,0.508,9.068,1.105,13.853,1.819c3.403,0.469,6.858,1.119,10.357,1.785
		c1.552-2.022,3.065-4.034,4.53-6.033c-4.782-0.823-9.523-1.428-14.121-1.886C506.217,407.125,501.419,406.952,496.883,406.78z"/>
	<path id="XMLID_744_" d="M543.705,420.956l3.681,1.098c2.464,0.693,4.864,1.538,7.259,2.343c1.203,0.388,2.386,0.812,3.55,1.27
		c1.177,0.426,2.348,0.849,3.512,1.27c2.33,0.84,4.564,1.831,6.803,2.718c2.222,0.923,4.331,1.992,6.471,2.892
		c2.109,0.96,4.118,2.01,6.109,2.974c3.893,2.079,7.599,4.041,10.889,6.078c1.674,0.978,3.252,1.956,4.712,2.951
		c1.486,0.967,2.895,1.883,4.22,2.745c2.57,1.857,4.81,3.475,6.656,4.808c3.57,2.833,5.692,4.415,5.692,4.415
		s-1.677-2.008-4.756-5.456c-1.587-1.67-3.587-3.635-5.913-5.873c-2.451-2.076-5.1-4.615-8.334-6.929
		c-3.128-2.468-6.703-4.895-10.581-7.314c-1.969-1.155-3.964-2.405-6.064-3.568c-2.113-1.136-4.29-2.277-6.535-3.365
		c-4.515-2.118-9.212-4.28-14.156-6.02c-2.469-0.873-4.948-1.789-7.486-2.547l-3.797-1.197l-3.84-1.067
		c-1.943-0.518-3.896-0.983-5.85-1.428c-1.352,1.957-2.774,3.982-4.304,6.109c2.787,0.641,5.575,1.33,8.336,2.114L543.705,420.956z"
		/>
	<path id="XMLID_745_" d="M551.758,643.518c0.906-0.716,1.53-1.416,1.585-2.013c0.013-0.141,0.037-0.295,0.056-0.442
		C553.108,641.899,552.602,642.752,551.758,643.518z"/>
	<path id="XMLID_748_" d="M492.788,654.922c-0.177,0.972-0.572,1.669-1.134,2.19c1.535,1.425,4.4,1.44,8.105,1.44
		c5.059,0,7.809-1.76,8.469-4.399c0,0,1.32,2.42,7.369,1.65c6.049-0.77,6.819-2.64,6.819-2.64s3.849,4.509,6.929,4.509
		c3.079,0,6.709-6.269,6.709-6.269s4.069,0.77,5.829-2.42c0,0,0.735,0.064,1.846,0.056c-0.107-0.573-0.138-1.01-0.138-1.01
		s3.89-1.679,6.758-3.521c-0.463,0.255-0.969,0.494-1.562,0.698c0,0-4.326,0.795-6.025,0c0,0,0.55-2.822,0-8.046
		c0,0,2.42-4.124,5.389-5.279c2.969-1.155,5.554,4.344,5.554,5.279c0,0.281,0.098,0.937,0.074,1.768
		c0.392-1.764,0.884-3.339,0.884-3.339l-0.558-2.404c-1.162-1.129-3.145-3.059-3.644-3.559c-0.715-0.715-2.529-5.939-2.529-5.939
		s-0.275,4.124-2.859,6.709c-2.585,2.585-3.629,4.289-3.629,4.289s-2.75-0.11-2.75-0.99c0-0.88-1.43-10.008-1.43-10.008
		s-1.54,7.149-2.64,8.249c-1.1,1.1-3.629,2.09-5.719,2.09c-2.09,0-5.609-1.43-5.609-1.43s-0.55-12.648-0.55-13.967
		c0-1.32-1.98,6.269-1.98,9.458c0,3.189-6.929,9.458-9.238,9.458s-4.289,0.11-4.289-2.419c0-2.53-3.794-2.914-4.619-3.739
		c-0.825-0.825-4.179-5.609-4.179-6.599s-2.64,6.599-2.64,6.599s-3.161,2.357-4.055,4.203c-0.03,0.062-0.06,0.17-0.09,0.258
		C492.523,638.387,493.426,651.415,492.788,654.922z M539.077,636.171c2.145-1.1,2.365,6.929,1.76,10.173
		c-0.605,3.244-4.179,2.859-4.179,2.859s-0.055-4.894-1.045-7.589C535.613,641.615,536.933,637.271,539.077,636.171z
		 M524.505,639.525c0,0,2.64-3.936,5.499-3.936s5.118,7.579,4.729,12.954c-0.388,5.375-4.784,7.094-5.939,5.939
		c-1.155-1.155-4.289-2.64-4.289-4.949C524.505,647.224,525.385,645.244,524.505,639.525z M510.647,640.845
		c0.55-0.55,8.886-1.86,10.668-7.369c0,0,1.76,10.558,0.55,15.397c-1.21,4.839-11.988,4.839-11.988,3.629
		C509.877,652.503,510.097,641.395,510.647,640.845z M493.49,643.265c0-9.238,5.939-9.788,5.939-9.788
		c5.389,0,6.698,3.299,6.698,10.008s0.56,11.328-7.358,11.878C490.851,655.912,493.49,652.503,493.49,643.265z"/>
	<path id="XMLID_754_" d="M447.256,651.403c0,0,3.629,6.269,6.709,6.269c3.079,0,6.929-4.509,6.929-4.509s0.77,1.87,6.819,2.64
		c6.049,0.77,7.369-1.65,7.369-1.65c0.66,2.64,3.409,4.399,8.469,4.399c3.704,0,6.57-0.015,8.105-1.44
		c0.561-0.521,0.957-1.218,1.134-2.19c0.638-3.508-0.265-16.536-1.134-19.075c-0.03-0.088-0.06-0.196-0.09-0.258
		c-0.895-1.846-4.055-4.203-4.055-4.203s-2.639-7.589-2.639-6.599s-3.354,5.774-4.179,6.599c-0.825,0.825-4.619,1.21-4.619,3.739
		c0,2.53-1.98,2.419-4.289,2.419c-2.31,0-9.238-6.269-9.238-9.458c0-3.189-1.98-10.778-1.98-9.458c0,1.32-0.55,13.967-0.55,13.967
		s-3.519,1.43-5.609,1.43s-4.619-0.99-5.719-2.09c-1.1-1.1-2.639-8.249-2.639-8.249s-1.43,9.128-1.43,10.008
		c0,0.88-2.75,0.99-2.75,0.99s-1.045-1.705-3.629-4.289c-2.585-2.584-2.859-6.709-2.859-6.709s-1.815,5.224-2.53,5.939
		c-0.411,0.411-1.83,1.794-2.971,2.904l-0.727,3.132c0,0,0.203,0.653,0.449,1.57c0.001-0.022,0.003-0.053,0.003-0.072
		c0-0.935,2.585-6.434,5.554-5.279c2.97,1.155,5.389,5.279,5.389,5.279c-0.55,5.224,0,8.046,0,8.046c-1.699,0.795-6.025,0-6.025,0
		c-0.046-0.016-0.083-0.036-0.128-0.052c2.711,1.603,5.829,2.948,5.829,2.948s-0.027,0.399-0.123,0.934
		c0.809-0.011,1.327-0.054,1.327-0.054C443.187,652.173,447.256,651.403,447.256,651.403z M477.181,643.484
		c0-6.709,1.309-10.008,6.698-10.008c0,0,5.939,0.55,5.939,9.788c0,9.238,2.639,12.648-5.279,12.098
		C476.621,654.813,477.181,650.193,477.181,643.484z M461.994,633.476c1.782,5.509,10.118,6.819,10.668,7.369
		c0.55,0.55,0.77,11.658,0.77,11.658c0,1.21-10.778,1.21-11.988-3.629C460.234,644.034,461.994,633.476,461.994,633.476z
		 M453.305,635.589c2.859,0,5.499,3.936,5.499,3.936c-0.88,5.719,0,7.699,0,10.008c0,2.31-3.134,3.794-4.289,4.949
		c-1.155,1.155-5.551-0.564-5.939-5.939C448.188,643.168,450.446,635.589,453.305,635.589z M444.232,636.171
		c2.145,1.1,3.464,5.444,3.464,5.444c-0.99,2.695-1.045,7.589-1.045,7.589s-3.574,0.385-4.179-2.859
		C441.867,643.1,442.087,635.071,444.232,636.171z"/>
	<path id="XMLID_760_" d="M410.382,620.242c1.76,8.505,1.76,20.899,1.76,22.474c0,1.575,9.092,17.412,10.558,30.317
		c1.467,12.904,9.092,26.102,9.092,26.102s-5.279-15.837-5.279-27.568c0-11.731-8.652-35.425-8.652-35.425l3.635-24.405
		c0,0-0.556,28.473,4.137,41.512c4.693,13.039,13.26,35.621,15.576,41.78c2.315,6.159,7.985,11.145,7.985,14.078
		c0,2.933,9.247,17.904,12.487,14.664l0.54-2.64c0,0,3.666,6.672,6.892,6.672c3.226,0,7.186-1.906,7.186-1.906
		s2.2,2.493,4.619,3.372c2.42,0.88,9.018,1.32,10.118-1.76c0,0,0.492-0.285,0.901-0.839c-0.313-0.397-0.594-0.943-0.594-1.653
		c0-0.982,0.315-4.401,0.562-6.932c-0.156-1.594-0.283-2.82-0.283-2.82s-3.767-0.588-6.623-0.904c-0.002,0-0.004-0.001-0.006-0.001
		c-0.019-0.002-0.046-0.004-0.065-0.007c-0.8-0.088-1.522-0.153-2.065-0.177c-0.526-0.036-1.044-0.069-1.477-0.095
		c-0.288-0.032-0.631-0.052-1.032-0.058c-0.017-0.001-0.059-0.003-0.059-0.003l-0.003,0.002c-0.062-0.001-0.115-0.003-0.18-0.003
		c-1.89,0-2.964,0.374-3.604,1.575c-0.442-0.534-1.854-1.752-6.207-3.282l-0.005,0.009c-1.175-0.522-2.536-1.017-4.114-1.381
		c-0.198-0.046-0.373-0.042-0.558-0.058l-0.542-0.896c0,0-4.326-4.399-4.766-5.792c-0.44-1.393-2.126-1.76-1.613-5.572
		c0.479-3.559,0.913-6.927,0.344-7.99c-0.008-0.025,0.003-0.042-0.009-0.068c-0.472-1.018-1.931-1.511-1.931-1.511h-0.009
		c-0.576-0.596-2.207-1.603-2.207-3.116c0-1.833,0.88-2.932,0-5.059c-0.88-2.126-5.23-6.012-5.694-7.332
		c-0.464-1.32-1.784-8.285-4.864-8.725c-3.08-0.44-4.619-0.66-5.206-2.859c-0.587-2.2-1.1-9.385-0.073-10.411
		c0.613-0.614,0.909-1.718,1.05-2.512c0.095-0.535,0.123-0.934,0.123-0.934s-3.118-1.345-5.829-2.948
		c-2.028-1.199-3.829-2.542-3.923-3.577c-0.126-1.388-0.539-3.112-0.87-4.345c-0.247-0.917-0.449-1.57-0.449-1.57l0.727-3.132
		l1.275-5.497l0.198-0.854l3.226-20.53l-5.572-24.122l-6.746-6.012l-6.376,0.518c0,0-0.588,0.299-1.435,0.784
		c-1.557,0.892-4.012,2.43-5.466,4.017c-0.529,0.578-0.925,1.161-1.093,1.72c-0.88,2.933-1.808,19.547-1.808,19.547l-2.151,11.981
		c0,0,0.252-0.12,0.648-0.208C405.923,613.578,409.023,613.674,410.382,620.242z M477.03,719.444c0-2.515,0.812-3.897,2.812-4.298
		c2.269-0.244,7.426,0.578,7.516,0.593c1.301,0.404,2.386,0.832,2.577,1.213c0.586,1.173-0.293,3.006-0.88,4.839
		c-0.587,1.833-7.002,5.023-10.045,1.98C475.967,720.727,477.03,722.964,477.03,719.444z M465.519,712.625
		c1.644,0,4.245,1.079,6.446,1.858c1.782,0.677,3.919,1.572,4.163,2.059l0.003,0.004c-0.31,1.08-0.463,2.579-0.567,4.658
		c0,0-0.073,1.906-0.733,2.566c-0.66,0.66-6.819,2.2-7.919,0.44c-1.1-1.76-4.252-4.326-4.252-5.499
		C462.659,717.538,462.952,712.625,465.519,712.625z M463.099,710.719l0.427,0.665c-3.08,2.132-3.136,9.742-3.434,10.04
		c-0.366,0.366-7.039-8.285-7.039-9.825c0-1.54,1.027-3.886,3.446-3.886C458.92,707.713,463.099,710.719,463.099,710.719z
		 M439.49,670.827c0.44-1.974,0.586-3.073,1.246-3.733c0.66-0.66,3.666-1.173,3.666,1.98c0,3.153-0.382,3.446-0.382,3.446
		s2.215-0.293,2.215,1.027c0,1.32-3.152,1.906-1.393,2.273c1.76,0.367,2.053-0.953,3.812,0.807c1.76,1.76,5.206,4.252,4.473,7.552
		c-0.733,3.299-3.556,3.116-2.346,4.326c1.21,1.21,3.812-1.247,5.572,1.833l0.59,1.073c0.27,1.813,0.728,5.747-0.223,6.699
		c-1.247,1.246-5.243,1.796-7.259-0.22c-2.017-2.016-1.21-6.415-0.513-7.112c0.696-0.696,1.1-1.393,0.44-1.393
		s-1.76,2.859-4.326-0.367c-2.566-3.226-5.719-6.599-4.619-8.505c1.1-1.906,3.079-2.786,3.079-2.786s-0.587-2.273-3.373-2.273
		s-4.473-0.293-4.473-1.833c0-1.54-0.77-5.975,0.807-4.399C438.06,670.796,439.05,672.801,439.49,670.827z"/>
	<path id="XMLID_766_" d="M569.994,577.112c-1.178-0.702-2.063-1.151-2.063-1.151l-6.376-0.518l-6.746,6.012l-5.572,24.122
		l3.226,20.53l0.513,2.209l1.129,4.869l0.558,2.404c0,0-0.492,1.575-0.884,3.339c-0.159,0.715-0.295,1.448-0.38,2.134
		c-0.018,0.147-0.043,0.301-0.056,0.442c-0.055,0.597-0.679,1.297-1.585,2.013c-0.418,0.33-0.898,0.662-1.409,0.991
		c-2.868,1.843-6.758,3.521-6.758,3.521s0.031,0.436,0.138,1.01c0.147,0.788,0.441,1.842,1.036,2.436
		c1.026,1.027,0.513,8.212-0.073,10.412c-0.586,2.2-2.126,2.42-5.206,2.859c-3.079,0.44-4.399,7.405-4.864,8.725
		c-0.464,1.32-4.815,5.206-5.695,7.332c-0.88,2.126,0,3.226,0,5.059c0,1.513-1.632,2.52-2.207,3.116h-0.009
		c0,0-1.459,0.493-1.931,1.511c-0.013,0.026-0.001,0.043-0.01,0.068c-0.569,1.063-0.135,4.431,0.344,7.99
		c0.513,3.813-1.173,4.179-1.613,5.573c-0.44,1.393-4.766,5.792-4.766,5.792l-0.542,0.896c-0.184,0.016-0.359,0.012-0.558,0.057
		c-1.578,0.364-2.939,0.859-4.114,1.381l-0.005-0.009c-4.354,1.53-5.765,2.747-6.208,3.281c-0.64-1.2-1.714-1.575-3.604-1.575
		c-0.065,0-0.118,0.003-0.18,0.004l-0.004-0.002c0,0-0.042,0.003-0.059,0.003c-0.401,0.006-0.745,0.026-1.032,0.058
		c-0.433,0.026-0.951,0.058-1.477,0.095c-0.544,0.024-1.266,0.089-2.066,0.177c-0.02,0.002-0.046,0.005-0.065,0.007
		c-0.002,0-0.004,0.001-0.006,0.001c-2.855,0.316-6.622,0.904-6.622,0.904s-0.131,1.264-0.29,2.893
		c-0.247,2.531-0.562,5.95-0.562,6.932c0,0.711,0.281,1.256,0.594,1.653c0.396,0.505,0.844,0.766,0.844,0.766
		c1.1,3.08,7.699,2.64,10.118,1.76c2.42-0.88,4.619-3.373,4.619-3.373s3.959,1.907,7.186,1.907c3.226,0,6.892-6.672,6.892-6.672
		l0.54,2.64c3.239,3.239,12.487-11.731,12.487-14.664c0-2.933,5.67-7.919,7.985-14.078c2.315-6.159,10.883-28.742,15.576-41.781
		c4.693-13.039,4.137-41.512,4.137-41.512l3.635,24.405c0,0-8.652,23.693-8.652,35.424c0,11.732-5.279,27.569-5.279,27.569
		s7.625-13.198,9.092-26.102c1.466-12.905,10.558-28.742,10.558-30.316c0-1.575,0-13.969,1.76-22.474
		c1.27-6.137,4.059-6.62,5.518-6.416c0.563,0.079,0.934,0.257,0.934,0.257l-2.151-11.981c0,0-0.928-16.614-1.808-19.547
		c-0.174-0.578-0.595-1.182-1.151-1.779C573.501,579.337,571.507,578.013,569.994,577.112z M504.805,723.697
		c-3.043,3.043-9.458-0.146-10.045-1.98c-0.586-1.833-1.466-3.666-0.88-4.839c0.191-0.382,1.276-0.809,2.577-1.213
		c0.09-0.014,5.246-0.836,7.516-0.593c2,0.401,2.812,1.784,2.812,4.299C506.784,722.891,507.847,720.654,504.805,723.697z
		 M516.902,724.137c-1.1,1.76-7.259,0.22-7.919-0.44c-0.66-0.66-0.733-2.566-0.733-2.566c-0.104-2.078-0.257-3.577-0.567-4.658
		l0.003-0.004c0.244-0.487,2.381-1.383,4.163-2.059c2.201-0.779,4.802-1.857,6.446-1.857c2.567,0,2.859,4.912,2.859,6.085
		C521.155,719.811,518.002,722.377,516.902,724.137z M523.721,721.351c-0.298-0.298-0.354-7.907-3.434-10.04l0.427-0.665
		c0,0,4.179-3.006,6.599-3.006c2.42,0,3.446,2.346,3.446,3.886C530.76,713.065,524.088,721.717,523.721,721.351z M548.137,673.546
		c0,1.54-1.687,1.833-4.473,1.833c-2.786,0-3.373,2.273-3.373,2.273s1.98,0.88,3.08,2.786c1.1,1.906-2.053,5.279-4.619,8.505
		c-2.566,3.226-3.666,0.367-4.326,0.367s-0.256,0.697,0.44,1.393s1.503,5.096-0.513,7.112c-2.016,2.016-6.012,1.466-7.259,0.22
		c-0.951-0.952-0.494-4.886-0.223-6.699l0.59-1.073c1.76-3.079,4.362-0.623,5.572-1.833c1.21-1.21-1.613-1.026-2.346-4.326
		c-0.733-3.299,2.713-5.792,4.473-7.552c1.76-1.76,2.053-0.44,3.812-0.806c1.76-0.367-1.393-0.953-1.393-2.273
		c0-1.32,2.215-1.026,2.215-1.026s-0.382-0.293-0.382-3.446c0-3.153,3.006-2.64,3.666-1.98c0.66,0.66,0.806,1.76,1.246,3.733
		c0.44,1.974,1.43-0.031,3.006-1.607C548.907,667.57,548.137,672.006,548.137,673.546z"/>
	<path id="XMLID_770_" d="M592.636,671.572l-4.801-2.856c-0.603,1.014-3.078,5.276-5.494,10.853
		c-3.558,8.213-6.989,19.282-4.128,27.042c0.552,1.499,1.172,3.043,1.808,4.626c3.535,8.807,7.169,17.863,2.327,26.698l-7.932-4.923
		c-0.931,3.023-4.208,14.542-3.384,24.218l-9.03-0.68c-0.339,0.964-8.297,23.732-8.297,34.178c0,2.545-1.031,5.454-2.488,8.281
		c0.304-5.743-0.326-11.496-3.339-14.507c-1.971-1.971-3.994-1.641-4.769-1.406c-3.344,1.004-4.138,4.88-5.576,11.917
		c-1.213,5.934-2.875,14.054-6.231,19.229c-0.608-1.716-1.237-3.463-1.864-5.169l-0.204-5.897c0,0-5.939,2.2-9.678,23.756
		c-3.739,21.556-24.856,37.173-24.856,37.173c0-6.599-2.888-23.756-2.888-23.756l-3.271,14.957c0,0-8.798-7.919-15.837-20.896
		c-7.039-12.978-12.201-37.174-12.201-37.174l-2.079,4.949c-1.398,3.512-3.005,7.872-4.486,12.057
		c-3.356-5.176-5.018-13.296-6.231-19.229c-1.438-7.037-2.232-10.914-5.576-11.917c-0.775-0.235-2.798-0.565-4.769,1.406
		c-3.013,3.011-3.643,8.764-3.339,14.507c-1.457-2.827-2.488-5.736-2.488-8.281c0-10.446-7.958-33.214-8.297-34.178l-9.03,0.68
		c0.825-9.677-2.452-21.195-3.384-24.218l-7.932,4.923c-4.843-8.835-1.208-17.891,2.327-26.698c0.636-1.583,1.256-3.128,1.808-4.626
		c2.725-7.394-0.261-17.786-3.626-25.856c-0.015-0.036-0.029-0.073-0.044-0.109c0.162,0.107,0.315,0.233,0.475,0.346
		c15.671,11.051,20.261,47.397,20.261,47.397s4.986-9.385,4.986-8.212c0,1.173,10.265,35.194,10.265,35.194l7.332-6.745
		c0,0,4.986,20.823,22.583,22.289c17.597,1.467,21.703-9.385,21.703-9.385c1.76,9.092,9.972,10.558,9.972,10.558
		c15.837,0.586,25.809-18.77,25.809-18.77l4.106-3.519c15.837-12.611,16.717-30.208,16.717-30.208l4.692,2.64
		c5.573-12.611,19.883-36.995,19.883-36.995l0,0l-1.658-5.474l-0.003-0.008c-10.666,7.533-22.206,32.799-22.206,32.799l-7.144-4.913
		c2.377,18.697-12.153,37.577-14.609,35.12c-2.457-2.457-3.711-5.865-3.711-5.865c1.654,18.257-13.665,27.515-18.944,27.515
		c-5.279,0-10.862-19.89-10.862-19.89v4.693l-3.535-9.092c0,0-3.786,19.943-13.997,23.756c-10.211,3.813-20.29-14.078-20.29-14.078
		c-3.519-6.745-7.639-17.01-7.639-17.01l-5.361,8.505c-5.375-11.438-12.655-42.142-12.655-42.142
		c-0.855,2.504-4.006,12.228-4.006,12.228c-5.025-26.689-10.447-28.542-10.447-28.542l-0.013-0.003l-11.724-2.238
		c-2.141-5.108-4.406-9.234-5.458-11.068c-0.061-0.107-0.125-0.218-0.177-0.309c-0.119-0.205-0.224-0.385-0.295-0.504l-6.049,3.598
		c0.26,0.438,0.553,0.952,0.861,1.504c3.909,7.015,11.08,22.556,8.204,30.36c-0.529,1.438-1.124,2.92-1.734,4.437
		c-4.394,10.946-10.41,25.938,3.406,39.755l4.624-1.296c0.949,6.953,0.816,13.689-1.744,16.25l13.057-0.184
		c2.593,7.977,6.467,21.259,6.467,27.588c0,11.051,11.493,23.467,12.802,24.847c0,0,3.937-13.497,3.762-17.935
		c1.987,9.635,5.133,23.244,14.827,27.459c0,0,2.114-5.121,3.688-8.916c4.908,26.204,29.626,47.483,29.626,47.483l0.44,9.018
		c32.993-10.558,37.866-52.051,37.866-52.051c1.011,2.441,1.846,4.465,1.846,4.465c9.694-4.215,12.84-17.824,14.827-27.459
		c-0.175,4.439,3.762,17.935,3.762,17.935c1.31-1.38,12.803-13.796,12.803-24.847c0-6.329,3.873-19.611,6.466-27.588l13.057,0.184
		c-2.56-2.56-2.693-9.297-1.744-16.25l4.624,1.296c13.816-13.816,7.8-28.808,3.406-39.755c-0.61-1.517-1.205-2.999-1.734-4.437
		c-3.102-8.417,5.492-25.854,9.065-31.864L592.636,671.572z"/>
	<path id="XMLID_771_" d="M397.336,556.518c10.081,4.855,22.641,5.138,36.452-2.266c11.365-6.093,23.096-17.192,31.725-29.108
		c2.464-3.403,4.673-6.872,6.549-10.311c6.66-12.204,9.119-24.022,3.752-31.098c10.834-11.259,20.243-21.68,28.447-31.257
		c1.951-2.277,3.843-4.513,5.656-6.691c8.722-10.478,15.895-19.819,21.726-27.923c1.53-2.127,2.952-4.153,4.304-6.109
		c8.146-11.791,13.139-20.467,15.918-25.739c2.08-3.947,2.938-6.008,2.938-6.008l-9.495-3.116c-0.913,1.963-1.909,3.955-2.974,5.972
		c-4.492,8.507-10.293,17.475-17.064,26.713c-1.465,1.999-2.978,4.01-4.53,6.033c-7.425,9.673-15.804,19.588-24.758,29.532
		c-2.104,2.337-4.242,4.676-6.404,7.013c-7.804,8.436-15.953,16.857-24.218,25.132c-24.033-8.274-68.527-1.925-68.527-1.925
		c-20.823,5.866-28.742,31.088-21.703,53.964c2.341,7.608,6.474,14.59,11.984,19.973c-10.543,9.029-18.716,15.754-23.687,19.785
		c-3.492,2.831-5.418,4.345-5.418,4.345l8.85,7.922c1.919-1.517,3.795-3.018,5.676-4.521
		C381.183,569.915,389.451,563.141,397.336,556.518z"/>
	<path id="XMLID_774_" d="M125.716,317.256c13.914,0,22.405-1.982,30.551-1.982c7.638,0,14.972,1.74,26.197,8.488
		c10.879,6.54,40.595,30.462,60.454,46.941c17.563-14.882,31.256-31.256,39.226-41.706c-26.745-17.772-94.147-64.465-94.147-74.024
		v-25.056c0-7.338-4.064-14.06-10.556-17.482c-6.61-3.483-16.093-6.92-27.777-6.92c-5.103,0-10.625,0.655-16.513,2.248
		c-9.471,2.563-15.703,11.409-14.808,21.179c0.322,3.513,1.135,7.55,2.722,12.086c6.509,18.591,6.509,28.817-14.873,35.324
		C84.813,282.861,98.757,317.256,125.716,317.256z M108.244,283.086c11.173-3.4,17.945-8.078,21.314-14.722
		c4.192-8.266,2.293-17.836-1.847-29.66c-1.261-3.604-2.054-7.105-2.356-10.403c-0.577-6.296,3.476-12.076,9.637-13.743
		c4.915-1.33,9.852-2.004,14.675-2.004c8.564,0,16.805,2.055,24.495,6.108c4.193,2.21,6.799,6.523,6.799,11.255v25.056
		c0,4.127,0,9.778,39.869,39.571c16.727,12.499,36.314,26.124,51.094,36.081c-7.259,9.003-17.163,20.152-29.122,30.848
		c-13.197-10.871-44.68-36.512-56.71-43.744c-11.219-6.743-19.859-9.494-29.824-9.494c-3.895,0-7.796,0.404-11.927,0.832
		c-5.205,0.539-11.105,1.15-18.625,1.15c-13.687,0-21.683-10.883-22.778-18.237C101.902,285.017,106.676,283.564,108.244,283.086z"
		/>
	<path id="XMLID_777_" d="M373.02,606.693c-39.069,29.736-133.293,100.927-161.78,117.728c-36.253,21.382-44.62,25.1-62.284,25.1
		c-8.704,0-18.675-1.493-28.065-1.493c-9.664,0-18.713,1.581-25.132,7.999c-12.653,12.656,4.858,39.044,15.085,49.27
		c10.224,10.227,26.957,11.155,26.957,11.155c0,38.986,26.775,44.625,45.598,44.625c7.658,0,13.998-0.933,16.686-0.933
		c9.296,0,26.029-70.651,26.029-78.086c0-7.192,143.977-104.324,153.499-110.741c0.132-13.545,1.474-41.666,9.551-63.983
		c0.011-0.122,0.021-0.237,0.031-0.359c-2.475,1.563-5.686,3.054-8.926,3.054C377.761,610.031,375.236,609.138,373.02,606.693z
		 M372.635,667.535c-10.697,7.225-44.63,30.212-77.375,53.093c-76.186,53.237-76.186,56.497-76.185,61.399
		c-0.075,2.628-3.266,18.439-8.257,36.388c-6.919,24.882-11.275,32.622-12.798,34.773c-0.867,0.058-1.839,0.141-2.934,0.235
		c-3.03,0.26-7.18,0.616-11.688,0.616c-26.307,0-38.559-11.943-38.559-37.586l-0.022-6.62l-6.606-0.407
		c-0.141-0.009-14.255-0.967-22.391-9.106c-9.492-9.492-23.038-31.361-15.085-39.315c4.107-4.107,10.324-5.938,20.156-5.938
		c4.508,0,9.338,0.379,14.009,0.746c4.676,0.367,9.51,0.747,14.056,0.747c19.782,0,29.458-4.606,65.86-26.076
		c27.817-16.406,116.909-83.557,158.308-115.026c1.791,0.867,3.719,1.391,5.748,1.555
		C374.223,635.312,372.927,654.837,372.635,667.535z"/>
	<path id="XMLID_780_" d="M741.766,370.703c19.86-16.479,49.576-40.402,60.455-46.941c11.225-6.747,18.56-8.488,26.197-8.488
		c8.146,0,16.637,1.982,30.551,1.982c26.959,0,40.903-34.395,19.522-40.903c-21.382-6.506-21.382-16.733-14.873-35.324
		c1.587-4.535,2.4-8.573,2.722-12.086c0.895-9.77-5.337-18.617-14.808-21.179c-5.888-1.593-11.41-2.248-16.513-2.248
		c-11.684,0-21.167,3.437-27.777,6.92c-6.492,3.421-10.556,10.144-10.556,17.482v25.056c0,9.559-67.401,56.252-94.147,74.024
		C710.51,339.448,724.203,355.821,741.766,370.703z M763.856,294.544c39.869-29.792,39.869-35.444,39.869-39.571v-25.056
		c0-4.732,2.605-9.045,6.799-11.255c7.69-4.053,15.931-6.108,24.495-6.108c4.823,0,9.76,0.674,14.675,2.004
		c6.161,1.667,10.214,7.447,9.637,13.743c-0.302,3.299-1.095,6.799-2.356,10.403c-4.14,11.824-6.039,21.394-1.847,29.66
		c3.369,6.644,10.142,11.322,21.314,14.722c1.568,0.477,6.341,1.931,5.305,8.894c-1.095,7.354-9.091,18.237-22.778,18.237
		c-7.519,0-13.419-0.611-18.625-1.15c-4.131-0.427-8.032-0.832-11.927-0.832c-9.965,0-18.605,2.751-29.824,9.494
		c-12.03,7.232-43.513,32.873-56.71,43.744c-11.959-10.696-21.863-21.845-29.122-30.848
		C727.543,320.668,747.13,307.043,763.856,294.544z"/>
	<path id="XMLID_783_" d="M863.795,748.029c-9.39,0-19.361,1.493-28.065,1.493c-17.664,0-26.031-3.718-62.284-25.1
		c-28.488-16.801-122.711-87.993-161.78-117.728c-2.216,2.444-4.741,3.337-7.249,3.337c-3.24,0-6.451-1.491-8.926-3.054
		c0.011,0.121,0.021,0.236,0.031,0.359c8.078,22.317,9.419,50.438,9.551,63.983c9.522,6.417,153.499,103.548,153.499,110.741
		c0,7.435,16.733,78.086,26.029,78.086c2.688,0,9.028,0.933,16.686,0.933c18.823,0,45.598-5.638,45.598-44.625
		c0,0,16.733-0.929,26.957-11.155c10.227-10.227,27.738-36.614,15.085-49.27C882.508,749.61,873.459,748.029,863.795,748.029z
		 M868.865,800.32c-8.136,8.138-22.25,9.097-22.391,9.106l-6.606,0.407l-0.022,6.62c0,25.643-12.253,37.586-38.559,37.586
		c-4.508,0-8.658-0.356-11.688-0.616c-1.095-0.094-2.068-0.177-2.934-0.235c-1.523-2.151-5.88-9.891-12.798-34.773
		c-4.991-17.949-8.182-33.76-8.257-36.388c0-4.902,0-8.161-76.185-61.399c-32.745-22.882-66.678-45.868-77.375-53.093
		c-0.292-12.697-1.588-32.223-6.236-50.521c2.029-0.164,3.958-0.689,5.748-1.555c41.399,31.469,130.491,98.62,158.308,115.026
		c36.401,21.469,46.077,26.076,65.86,26.076c4.545,0,9.38-0.38,14.056-0.747c4.671-0.367,9.501-0.746,14.009-0.746
		c9.832,0,16.048,1.831,20.156,5.938C891.904,768.96,878.357,790.828,868.865,800.32z"/>
</g>
</svg>
